<mxfile host="app.diagrams.net" modified="2022-03-08T15:24:36.669Z" agent="5.0 (Windows NT 10.0; Win64; x64) AppleWebKit/537.36 (KHTML, like Gecko) Chrome/99.0.4844.51 Safari/537.36" etag="1ye9XAPSLjawQorCAfkD" version="16.6.6" type="github">
  <diagram id="6a731a19-8d31-9384-78a2-239565b7b9f0" name="Page-1">
    <mxGraphModel dx="3916" dy="1249" grid="0" gridSize="10" guides="0" tooltips="1" connect="1" arrows="1" fold="1" page="0" pageScale="1" pageWidth="827" pageHeight="1169" background="none" math="0" shadow="0">
      <root>
        <mxCell id="0" />
        <mxCell id="1" parent="0" />
        <mxCell id="2086" value="" style="rounded=1;whiteSpace=wrap;html=1;strokeColor=none;fillColor=#BAC8D3;fontSize=24;fontColor=#23445D;align=center;opacity=60;" parent="1" vertex="1">
          <mxGeometry x="715" y="420" width="160" height="260" as="geometry" />
        </mxCell>
        <mxCell id="2087" value="&lt;font color=&quot;#23445d&quot;&gt;WAN&lt;/font&gt;" style="rounded=1;whiteSpace=wrap;html=1;strokeColor=none;fillColor=none;fontSize=14;fontColor=#742B21;align=center;fontStyle=1" parent="1" vertex="1">
          <mxGeometry x="759" y="434" width="73" height="19" as="geometry" />
        </mxCell>
        <mxCell id="2088" value="" style="rounded=1;whiteSpace=wrap;html=1;strokeColor=none;fillColor=#BAC8D3;fontSize=24;fontColor=#23445D;align=center;opacity=60;" parent="1" vertex="1">
          <mxGeometry x="1354" y="769" width="260" height="247" as="geometry" />
        </mxCell>
        <mxCell id="2089" value="" style="rounded=1;whiteSpace=wrap;html=1;strokeColor=none;fillColor=#BAC8D3;fontSize=24;fontColor=#23445D;align=center;opacity=60;" parent="1" vertex="1">
          <mxGeometry x="650" y="760" width="273" height="380" as="geometry" />
        </mxCell>
        <mxCell id="2090" value="" style="rounded=1;whiteSpace=wrap;html=1;strokeColor=none;fillColor=#BAC8D3;fontSize=24;fontColor=#23445D;align=center;opacity=60;" parent="1" vertex="1">
          <mxGeometry x="1403" y="420" width="160" height="260" as="geometry" />
        </mxCell>
        <mxCell id="2091" value="" style="rounded=1;whiteSpace=wrap;html=1;strokeColor=none;fillColor=#BAC8D3;fontSize=24;fontColor=#23445D;align=center;opacity=60;" parent="1" vertex="1">
          <mxGeometry x="1123" y="525" width="160" height="615" as="geometry" />
        </mxCell>
        <mxCell id="2092" value="" style="rounded=1;whiteSpace=wrap;html=1;strokeColor=none;fillColor=#BAC8D3;fontSize=24;fontColor=#23445D;align=center;opacity=60;" parent="1" vertex="1">
          <mxGeometry x="350" y="680" width="260" height="300" as="geometry" />
        </mxCell>
        <mxCell id="2093" value="" style="rounded=1;whiteSpace=wrap;html=1;strokeColor=none;fillColor=#BAC8D3;fontSize=24;fontColor=#23445D;align=center;opacity=60;" parent="1" vertex="1">
          <mxGeometry x="28" y="529" width="290" height="631" as="geometry" />
        </mxCell>
        <mxCell id="2094" value="" style="rounded=1;whiteSpace=wrap;html=1;strokeColor=none;fillColor=#BAC8D3;fontSize=24;fontColor=#23445D;align=center;opacity=60;" parent="1" vertex="1">
          <mxGeometry x="1160" y="30" width="450" height="210" as="geometry" />
        </mxCell>
        <mxCell id="2095" value="" style="rounded=1;whiteSpace=wrap;html=1;strokeColor=none;fillColor=#BAC8D3;fontSize=24;fontColor=#23445D;align=center;opacity=60;" parent="1" vertex="1">
          <mxGeometry x="30" y="30" width="690" height="200" as="geometry" />
        </mxCell>
        <mxCell id="2096" value="" style="shape=mxgraph.cisco.computers_and_peripherals.workstation;html=1;dashed=0;fillColor=#10739E;strokeColor=#ffffff;strokeWidth=2;verticalLabelPosition=bottom;verticalAlign=top;fontFamily=Helvetica;fontSize=36;fontColor=#FFB366" parent="1" vertex="1">
          <mxGeometry x="60" y="95" width="83" height="62" as="geometry" />
        </mxCell>
        <mxCell id="2097" value="" style="shape=mxgraph.cisco.servers.fileserver;html=1;dashed=0;fillColor=#10739E;strokeColor=#ffffff;strokeWidth=2;verticalLabelPosition=bottom;verticalAlign=top;fontFamily=Helvetica;fontSize=36;fontColor=#FFB366" parent="1" vertex="1">
          <mxGeometry x="178" y="94" width="43" height="62" as="geometry" />
        </mxCell>
        <mxCell id="2098" value="" style="shape=mxgraph.cisco.servers.fileserver;html=1;dashed=0;fillColor=#10739E;strokeColor=#ffffff;strokeWidth=2;verticalLabelPosition=bottom;verticalAlign=top;fontFamily=Helvetica;fontSize=36;fontColor=#FFB366" parent="1" vertex="1">
          <mxGeometry x="382" y="94" width="43" height="62" as="geometry" />
        </mxCell>
        <mxCell id="2099" value="" style="shape=mxgraph.cisco.servers.file_server;html=1;dashed=0;fillColor=#10739E;strokeColor=#ffffff;strokeWidth=2;verticalLabelPosition=bottom;verticalAlign=top;fontFamily=Helvetica;fontSize=36;fontColor=#FFB366" parent="1" vertex="1">
          <mxGeometry x="316" y="99" width="43" height="58" as="geometry" />
        </mxCell>
        <mxCell id="2100" value="" style="shape=mxgraph.cisco.servers.storage_server;html=1;dashed=0;fillColor=#10739E;strokeColor=#ffffff;strokeWidth=2;verticalLabelPosition=bottom;verticalAlign=top;fontFamily=Helvetica;fontSize=36;fontColor=#FFB366" parent="1" vertex="1">
          <mxGeometry x="240" y="73" width="54" height="83" as="geometry" />
        </mxCell>
        <mxCell id="2101" value="" style="shape=mxgraph.cisco.computers_and_peripherals.ibm_mini_as400;html=1;dashed=0;fillColor=#10739E;strokeColor=#ffffff;strokeWidth=2;verticalLabelPosition=bottom;verticalAlign=top;fontFamily=Helvetica;fontSize=36;fontColor=#FFB366" parent="1" vertex="1">
          <mxGeometry x="439" y="95" width="43" height="62" as="geometry" />
        </mxCell>
        <mxCell id="2102" value="" style="shape=mxgraph.cisco.computers_and_peripherals.ibm_mainframe;html=1;dashed=0;fillColor=#10739E;strokeColor=#ffffff;strokeWidth=2;verticalLabelPosition=bottom;verticalAlign=top;fontFamily=Helvetica;fontSize=36;fontColor=#FFB366" parent="1" vertex="1">
          <mxGeometry x="508" y="87" width="50" height="70" as="geometry" />
        </mxCell>
        <mxCell id="2103" value="" style="shape=mxgraph.cisco.servers.fileserver;html=1;dashed=0;fillColor=#10739E;strokeColor=#ffffff;strokeWidth=2;verticalLabelPosition=bottom;verticalAlign=top;fontFamily=Helvetica;fontSize=36;fontColor=#FFB366" parent="1" vertex="1">
          <mxGeometry x="1240" y="97" width="43" height="62" as="geometry" />
        </mxCell>
        <mxCell id="2104" value="" style="shape=mxgraph.cisco.servers.fileserver;html=1;dashed=0;fillColor=#10739E;strokeColor=#ffffff;strokeWidth=2;verticalLabelPosition=bottom;verticalAlign=top;fontFamily=Helvetica;fontSize=36;fontColor=#FFB366" parent="1" vertex="1">
          <mxGeometry x="1310" y="97" width="43" height="62" as="geometry" />
        </mxCell>
        <mxCell id="2105" value="" style="shape=mxgraph.cisco.computers_and_peripherals.ibm_mainframe;html=1;dashed=0;fillColor=#10739E;strokeColor=#ffffff;strokeWidth=2;verticalLabelPosition=bottom;verticalAlign=top;fontFamily=Helvetica;fontSize=36;fontColor=#FFB366" parent="1" vertex="1">
          <mxGeometry x="1390" y="93" width="50" height="70" as="geometry" />
        </mxCell>
        <mxCell id="2106" value="" style="shape=mxgraph.cisco.servers.storage_server;html=1;dashed=0;fillColor=#10739E;strokeColor=#ffffff;strokeWidth=2;verticalLabelPosition=bottom;verticalAlign=top;fontFamily=Helvetica;fontSize=36;fontColor=#FFB366" parent="1" vertex="1">
          <mxGeometry x="1470" y="81" width="54" height="83" as="geometry" />
        </mxCell>
        <mxCell id="2107" value="" style="shape=mxgraph.cisco.switches.workgroup_switch;html=1;dashed=0;fillColor=#10739E;strokeColor=#ffffff;strokeWidth=2;verticalLabelPosition=bottom;verticalAlign=top;fontFamily=Helvetica;fontSize=36;fontColor=#FFB366" parent="1" vertex="1">
          <mxGeometry x="416" y="252" width="101" height="50" as="geometry" />
        </mxCell>
        <mxCell id="2108" value="" style="shape=mxgraph.cisco.security.pix_firewall;html=1;dashed=0;fillColor=#10739E;strokeColor=#ffffff;strokeWidth=2;verticalLabelPosition=bottom;verticalAlign=top;fontFamily=Helvetica;fontSize=36;fontColor=#FFB366" parent="1" vertex="1">
          <mxGeometry x="1206" y="252" width="77" height="51" as="geometry" />
        </mxCell>
        <mxCell id="2109" value="Internet" style="shape=mxgraph.cisco.storage.cloud;html=1;dashed=0;strokeColor=#23445D;fillColor=#ffffff;strokeWidth=2;fontFamily=Helvetica;fontSize=24;fontColor=#23445D;align=center;fontStyle=1" parent="1" vertex="1">
          <mxGeometry x="847" y="87" width="186" height="106" as="geometry" />
        </mxCell>
        <mxCell id="2110" value="PSTN" style="shape=mxgraph.cisco.storage.cloud;html=1;dashed=0;strokeColor=#23445D;fillColor=#ffffff;strokeWidth=2;fontFamily=Helvetica;fontSize=24;fontColor=#23445D;fontStyle=1" parent="1" vertex="1">
          <mxGeometry x="847" y="210" width="186" height="106" as="geometry" />
        </mxCell>
        <mxCell id="2111" value="" style="shape=mxgraph.cisco.servers.communications_server;html=1;dashed=0;fillColor=#10739E;strokeColor=#ffffff;strokeWidth=2;verticalLabelPosition=bottom;verticalAlign=top;fontFamily=Helvetica;fontSize=36;fontColor=#FFB366" parent="1" vertex="1">
          <mxGeometry x="1020" y="246" width="54" height="56" as="geometry" />
        </mxCell>
        <mxCell id="2112" value="" style="shape=mxgraph.cisco.switches.layer_3_switch;html=1;dashed=0;fillColor=#10739E;strokeColor=#ffffff;strokeWidth=2;verticalLabelPosition=bottom;verticalAlign=top;fontFamily=Helvetica;fontSize=36;fontColor=#FFB366" parent="1" vertex="1">
          <mxGeometry x="631" y="370" width="64" height="64" as="geometry" />
        </mxCell>
        <mxCell id="2113" value="" style="shape=mxgraph.cisco.switches.layer_3_switch;html=1;dashed=0;fillColor=#10739E;strokeColor=#ffffff;strokeWidth=2;verticalLabelPosition=bottom;verticalAlign=top;fontFamily=Helvetica;fontSize=36;fontColor=#FFB366" parent="1" vertex="1">
          <mxGeometry x="1240" y="370" width="64" height="64" as="geometry" />
        </mxCell>
        <mxCell id="2114" value="" style="shape=mxgraph.cisco.switches.workgroup_switch;html=1;dashed=0;fillColor=#10739E;strokeColor=#ffffff;strokeWidth=2;verticalLabelPosition=bottom;verticalAlign=top;fontFamily=Helvetica;fontSize=36;fontColor=#FFB366" parent="1" vertex="1">
          <mxGeometry x="142" y="464" width="101" height="50" as="geometry" />
        </mxCell>
        <mxCell id="2115" value="" style="shape=mxgraph.cisco.switches.workgroup_switch;html=1;dashed=0;fillColor=#10739E;strokeColor=#ffffff;strokeWidth=2;verticalLabelPosition=bottom;verticalAlign=top;fontFamily=Helvetica;fontSize=36;fontColor=#FFB366" parent="1" vertex="1">
          <mxGeometry x="958" y="460" width="101" height="50" as="geometry" />
        </mxCell>
        <mxCell id="2116" value="" style="shape=mxgraph.cisco.switches.workgroup_switch;html=1;dashed=0;fillColor=#10739E;strokeColor=#ffffff;strokeWidth=2;verticalLabelPosition=bottom;verticalAlign=top;fontFamily=Helvetica;fontSize=36;fontColor=#FFB366" parent="1" vertex="1">
          <mxGeometry x="500" y="476" width="101" height="50" as="geometry" />
        </mxCell>
        <mxCell id="2117" value="" style="shape=mxgraph.cisco.switches.workgroup_switch;html=1;dashed=0;fillColor=#10739E;strokeColor=#ffffff;strokeWidth=2;verticalLabelPosition=bottom;verticalAlign=top;fontFamily=Helvetica;fontSize=36;fontColor=#FFB366" parent="1" vertex="1">
          <mxGeometry x="1209" y="460" width="101" height="50" as="geometry" />
        </mxCell>
        <mxCell id="2118" value="" style="shape=mxgraph.cisco.switches.workgroup_switch;html=1;dashed=0;fillColor=#10739E;strokeColor=#ffffff;strokeWidth=2;verticalLabelPosition=bottom;verticalAlign=top;fontFamily=Helvetica;fontSize=36;fontColor=#FFB366" parent="1" vertex="1">
          <mxGeometry x="361" y="696" width="101" height="50" as="geometry" />
        </mxCell>
        <mxCell id="2119" value="" style="shape=mxgraph.cisco.switches.workgroup_switch;html=1;dashed=0;fillColor=#10739E;strokeColor=#ffffff;strokeWidth=2;verticalLabelPosition=bottom;verticalAlign=top;fontFamily=Helvetica;fontSize=36;fontColor=#FFB366" parent="1" vertex="1">
          <mxGeometry x="483" y="854" width="101" height="50" as="geometry" />
        </mxCell>
        <mxCell id="2120" value="" style="shape=mxgraph.cisco.misc.access_point;html=1;dashed=0;fillColor=#10739E;strokeColor=#ffffff;strokeWidth=2;verticalLabelPosition=bottom;verticalAlign=top;fontFamily=Helvetica;fontSize=36;fontColor=#FFB366" parent="1" vertex="1">
          <mxGeometry x="223" y="555" width="75" height="34" as="geometry" />
        </mxCell>
        <mxCell id="2121" value="" style="shape=mxgraph.cisco.misc.access_point;html=1;dashed=0;fillColor=#10739E;strokeColor=#ffffff;strokeWidth=2;verticalLabelPosition=bottom;verticalAlign=top;fontFamily=Helvetica;fontSize=36;fontColor=#FFB366" parent="1" vertex="1">
          <mxGeometry x="223" y="623" width="75" height="34" as="geometry" />
        </mxCell>
        <mxCell id="2122" value="" style="shape=mxgraph.cisco.misc.access_point;html=1;dashed=0;fillColor=#10739E;strokeColor=#ffffff;strokeWidth=2;verticalLabelPosition=bottom;verticalAlign=top;fontFamily=Helvetica;fontSize=36;fontColor=#FFB366" parent="1" vertex="1">
          <mxGeometry x="223" y="852" width="75" height="34" as="geometry" />
        </mxCell>
        <mxCell id="2123" value="" style="shape=mxgraph.cisco.misc.access_point;html=1;dashed=0;fillColor=#10739E;strokeColor=#ffffff;strokeWidth=2;verticalLabelPosition=bottom;verticalAlign=top;fontFamily=Helvetica;fontSize=36;fontColor=#FFB366" parent="1" vertex="1">
          <mxGeometry x="223" y="705" width="75" height="34" as="geometry" />
        </mxCell>
        <mxCell id="2124" value="" style="shape=mxgraph.cisco.misc.access_point;html=1;dashed=0;fillColor=#10739E;strokeColor=#ffffff;strokeWidth=2;verticalLabelPosition=bottom;verticalAlign=top;fontFamily=Helvetica;fontSize=36;fontColor=#FFB366" parent="1" vertex="1">
          <mxGeometry x="223" y="930" width="75" height="34" as="geometry" />
        </mxCell>
        <mxCell id="2125" value="" style="shape=mxgraph.cisco.misc.access_point;html=1;dashed=0;fillColor=#10739E;strokeColor=#ffffff;strokeWidth=2;verticalLabelPosition=bottom;verticalAlign=top;fontFamily=Helvetica;fontSize=36;fontColor=#FFB366" parent="1" vertex="1">
          <mxGeometry x="223" y="779" width="75" height="34" as="geometry" />
        </mxCell>
        <mxCell id="2126" value="" style="shape=mxgraph.cisco.hubs_and_gateways.100baset_hub;html=1;dashed=0;fillColor=#10739E;strokeColor=#ffffff;strokeWidth=2;verticalLabelPosition=bottom;verticalAlign=top;fontFamily=Helvetica;fontSize=36;fontColor=#FFB366" parent="1" vertex="1">
          <mxGeometry x="59" y="544" width="90" height="45" as="geometry" />
        </mxCell>
        <mxCell id="2127" value="" style="shape=mxgraph.cisco.hubs_and_gateways.100baset_hub;html=1;dashed=0;fillColor=#10739E;strokeColor=#ffffff;strokeWidth=2;verticalLabelPosition=bottom;verticalAlign=top;fontFamily=Helvetica;fontSize=36;fontColor=#FFB366" parent="1" vertex="1">
          <mxGeometry x="59" y="841" width="90" height="45" as="geometry" />
        </mxCell>
        <mxCell id="2128" value="" style="shape=mxgraph.cisco.hubs_and_gateways.100baset_hub;html=1;dashed=0;fillColor=#10739E;strokeColor=#ffffff;strokeWidth=2;verticalLabelPosition=bottom;verticalAlign=top;fontFamily=Helvetica;fontSize=36;fontColor=#FFB366" parent="1" vertex="1">
          <mxGeometry x="59" y="615" width="90" height="45" as="geometry" />
        </mxCell>
        <mxCell id="2129" value="" style="shape=mxgraph.cisco.hubs_and_gateways.100baset_hub;html=1;dashed=0;fillColor=#10739E;strokeColor=#ffffff;strokeWidth=2;verticalLabelPosition=bottom;verticalAlign=top;fontFamily=Helvetica;fontSize=36;fontColor=#FFB366" parent="1" vertex="1">
          <mxGeometry x="59" y="694" width="90" height="45" as="geometry" />
        </mxCell>
        <mxCell id="2130" value="" style="shape=mxgraph.cisco.hubs_and_gateways.100baset_hub;html=1;dashed=0;fillColor=#10739E;strokeColor=#ffffff;strokeWidth=2;verticalLabelPosition=bottom;verticalAlign=top;fontFamily=Helvetica;fontSize=36;fontColor=#FFB366" parent="1" vertex="1">
          <mxGeometry x="59" y="768" width="90" height="45" as="geometry" />
        </mxCell>
        <mxCell id="2131" value="" style="shape=mxgraph.cisco.misc.token;html=1;dashed=0;strokeColor=#10739E;fillColor=#ffffff;strokeWidth=2;verticalLabelPosition=bottom;verticalAlign=top;fontFamily=Helvetica;fontSize=36;fontColor=#23445D;labelBackgroundColor=none;" parent="1" vertex="1">
          <mxGeometry x="977" y="537" width="59" height="61" as="geometry" />
        </mxCell>
        <mxCell id="2132" value="" style="shape=mxgraph.cisco.routers.router;html=1;dashed=0;fillColor=#10739E;strokeColor=#ffffff;strokeWidth=2;verticalLabelPosition=bottom;verticalAlign=top;fontFamily=Helvetica;fontSize=36;fontColor=#FFB366" parent="1" vertex="1">
          <mxGeometry x="757" y="475" width="78" height="53" as="geometry" />
        </mxCell>
        <mxCell id="2133" value="" style="shape=mxgraph.cisco.routers.router;html=1;dashed=0;fillColor=#10739E;strokeColor=#ffffff;strokeWidth=2;verticalLabelPosition=bottom;verticalAlign=top;fontFamily=Helvetica;fontSize=36;fontColor=#FFB366" parent="1" vertex="1">
          <mxGeometry x="1444" y="476" width="78" height="53" as="geometry" />
        </mxCell>
        <mxCell id="2134" value="" style="shape=mxgraph.cisco.routers.router;html=1;dashed=0;fillColor=#10739E;strokeColor=#ffffff;strokeWidth=2;verticalLabelPosition=bottom;verticalAlign=top;fontFamily=Helvetica;fontSize=36;fontColor=#FFB366" parent="1" vertex="1">
          <mxGeometry x="757" y="594" width="78" height="53" as="geometry" />
        </mxCell>
        <mxCell id="2135" value="" style="shape=mxgraph.cisco.routers.router;html=1;dashed=0;fillColor=#10739E;strokeColor=#ffffff;strokeWidth=2;verticalLabelPosition=bottom;verticalAlign=top;fontFamily=Helvetica;fontSize=36;fontColor=#FFB366" parent="1" vertex="1">
          <mxGeometry x="1443" y="595" width="78" height="53" as="geometry" />
        </mxCell>
        <mxCell id="2136" value="" style="shape=mxgraph.cisco.switches.workgroup_switch;html=1;dashed=0;fillColor=#10739E;strokeColor=#ffffff;strokeWidth=2;verticalLabelPosition=bottom;verticalAlign=top;fontFamily=Helvetica;fontSize=36;fontColor=#FFB366" parent="1" vertex="1">
          <mxGeometry x="745" y="694" width="101" height="50" as="geometry" />
        </mxCell>
        <mxCell id="2137" value="" style="shape=mxgraph.cisco.switches.workgroup_switch;html=1;dashed=0;fillColor=#10739E;strokeColor=#ffffff;strokeWidth=2;verticalLabelPosition=bottom;verticalAlign=top;fontFamily=Helvetica;fontSize=36;fontColor=#FFB366" parent="1" vertex="1">
          <mxGeometry x="1432" y="691" width="101" height="50" as="geometry" />
        </mxCell>
        <mxCell id="2138" value="" style="shape=mxgraph.cisco.routers.router;html=1;dashed=0;fillColor=#10739E;strokeColor=#ffffff;strokeWidth=2;verticalLabelPosition=bottom;verticalAlign=top;fontFamily=Helvetica;fontSize=36;fontColor=#FFB366" parent="1" vertex="1">
          <mxGeometry x="1020" y="122" width="78" height="53" as="geometry" />
        </mxCell>
        <mxCell id="2139" value="" style="shape=mxgraph.cisco.hubs_and_gateways.100baset_hub;html=1;dashed=0;fillColor=#10739E;strokeColor=#ffffff;strokeWidth=2;verticalLabelPosition=bottom;verticalAlign=top;fontFamily=Helvetica;fontSize=36;fontColor=#FFB366" parent="1" vertex="1">
          <mxGeometry x="59" y="919" width="90" height="45" as="geometry" />
        </mxCell>
        <mxCell id="2140" value="" style="shape=mxgraph.cisco.hubs_and_gateways.100baset_hub;html=1;dashed=0;fillColor=#10739E;strokeColor=#ffffff;strokeWidth=2;verticalLabelPosition=bottom;verticalAlign=top;fontFamily=Helvetica;fontSize=36;fontColor=#FFB366" parent="1" vertex="1">
          <mxGeometry x="1137" y="548" width="90" height="45" as="geometry" />
        </mxCell>
        <mxCell id="2141" value="" style="shape=mxgraph.cisco.hubs_and_gateways.100baset_hub;html=1;dashed=0;fillColor=#10739E;strokeColor=#ffffff;strokeWidth=2;verticalLabelPosition=bottom;verticalAlign=top;fontFamily=Helvetica;fontSize=36;fontColor=#FFB366" parent="1" vertex="1">
          <mxGeometry x="1137" y="845" width="90" height="45" as="geometry" />
        </mxCell>
        <mxCell id="2142" value="" style="shape=mxgraph.cisco.hubs_and_gateways.100baset_hub;html=1;dashed=0;fillColor=#10739E;strokeColor=#ffffff;strokeWidth=2;verticalLabelPosition=bottom;verticalAlign=top;fontFamily=Helvetica;fontSize=36;fontColor=#FFB366" parent="1" vertex="1">
          <mxGeometry x="1137" y="619" width="90" height="45" as="geometry" />
        </mxCell>
        <mxCell id="2143" value="" style="shape=mxgraph.cisco.hubs_and_gateways.100baset_hub;html=1;dashed=0;fillColor=#10739E;strokeColor=#ffffff;strokeWidth=2;verticalLabelPosition=bottom;verticalAlign=top;fontFamily=Helvetica;fontSize=36;fontColor=#FFB366" parent="1" vertex="1">
          <mxGeometry x="1137" y="698" width="90" height="45" as="geometry" />
        </mxCell>
        <mxCell id="2144" value="" style="shape=mxgraph.cisco.hubs_and_gateways.100baset_hub;html=1;dashed=0;fillColor=#10739E;strokeColor=#ffffff;strokeWidth=2;verticalLabelPosition=bottom;verticalAlign=top;fontFamily=Helvetica;fontSize=36;fontColor=#FFB366" parent="1" vertex="1">
          <mxGeometry x="1137" y="772" width="90" height="45" as="geometry" />
        </mxCell>
        <mxCell id="2145" value="" style="shape=mxgraph.cisco.hubs_and_gateways.100baset_hub;html=1;dashed=0;fillColor=#10739E;strokeColor=#ffffff;strokeWidth=2;verticalLabelPosition=bottom;verticalAlign=top;fontFamily=Helvetica;fontSize=36;fontColor=#FFB366" parent="1" vertex="1">
          <mxGeometry x="1137" y="915" width="90" height="45" as="geometry" />
        </mxCell>
        <mxCell id="2146" value="" style="shape=mxgraph.cisco.hubs_and_gateways.100baset_hub;html=1;dashed=0;fillColor=#10739E;strokeColor=#ffffff;strokeWidth=2;verticalLabelPosition=bottom;verticalAlign=top;fontFamily=Helvetica;fontSize=36;fontColor=#FFB366" parent="1" vertex="1">
          <mxGeometry x="673" y="853" width="90" height="45" as="geometry" />
        </mxCell>
        <mxCell id="2147" value="" style="shape=mxgraph.cisco.hubs_and_gateways.100baset_hub;html=1;dashed=0;fillColor=#10739E;strokeColor=#ffffff;strokeWidth=2;verticalLabelPosition=bottom;verticalAlign=top;fontFamily=Helvetica;fontSize=36;fontColor=#FFB366" parent="1" vertex="1">
          <mxGeometry x="673" y="780" width="90" height="45" as="geometry" />
        </mxCell>
        <mxCell id="2148" value="" style="shape=mxgraph.cisco.hubs_and_gateways.100baset_hub;html=1;dashed=0;fillColor=#10739E;strokeColor=#ffffff;strokeWidth=2;verticalLabelPosition=bottom;verticalAlign=top;fontFamily=Helvetica;fontSize=36;fontColor=#FFB366" parent="1" vertex="1">
          <mxGeometry x="673" y="923" width="90" height="45" as="geometry" />
        </mxCell>
        <mxCell id="2149" value="" style="shape=mxgraph.cisco.misc.access_point;html=1;dashed=0;fillColor=#10739E;strokeColor=#ffffff;strokeWidth=2;verticalLabelPosition=bottom;verticalAlign=top;fontFamily=Helvetica;fontSize=36;fontColor=#FFB366" parent="1" vertex="1">
          <mxGeometry x="817" y="859" width="79" height="34" as="geometry" />
        </mxCell>
        <mxCell id="2150" value="" style="shape=mxgraph.cisco.misc.access_point;html=1;dashed=0;fillColor=#10739E;strokeColor=#ffffff;strokeWidth=2;verticalLabelPosition=bottom;verticalAlign=top;fontFamily=Helvetica;fontSize=36;fontColor=#FFB366" parent="1" vertex="1">
          <mxGeometry x="817" y="933" width="75" height="34" as="geometry" />
        </mxCell>
        <mxCell id="2151" value="" style="shape=mxgraph.cisco.misc.access_point;html=1;dashed=0;fillColor=#10739E;strokeColor=#ffffff;strokeWidth=2;verticalLabelPosition=bottom;verticalAlign=top;fontFamily=Helvetica;fontSize=36;fontColor=#FFB366" parent="1" vertex="1">
          <mxGeometry x="817" y="782" width="75" height="34" as="geometry" />
        </mxCell>
        <mxCell id="2152" value="" style="line;html=1;strokeColor=#23445D;" parent="1" vertex="1">
          <mxGeometry x="53" y="205" width="587" height="10" as="geometry" />
        </mxCell>
        <mxCell id="2153" value="" style="line;html=1;strokeColor=#23445D;" parent="1" vertex="1">
          <mxGeometry x="1192" y="207" width="388" height="10" as="geometry" />
        </mxCell>
        <mxCell id="2154" value="" style="line;html=1;strokeColor=#23445D;" parent="1" vertex="1">
          <mxGeometry x="377" y="340" width="943" height="10" as="geometry" />
        </mxCell>
        <mxCell id="2155" value="" style="edgeStyle=elbowEdgeStyle;elbow=horizontal;endArrow=none;html=1;strokeColor=#23445D;endFill=0;strokeWidth=4;rounded=1" parent="1" target="2102" edge="1">
          <mxGeometry width="100" height="100" relative="1" as="geometry">
            <mxPoint x="533" y="210" as="sourcePoint" />
            <mxPoint x="533" y="170" as="targetPoint" />
          </mxGeometry>
        </mxCell>
        <mxCell id="2156" value="" style="edgeStyle=elbowEdgeStyle;elbow=horizontal;endArrow=none;html=1;strokeColor=#23445D;endFill=0;strokeWidth=4;rounded=1" parent="1" target="2101" edge="1">
          <mxGeometry width="100" height="100" relative="1" as="geometry">
            <mxPoint x="460" y="210" as="sourcePoint" />
            <mxPoint x="460.33333333333337" y="156.94444444444446" as="targetPoint" />
          </mxGeometry>
        </mxCell>
        <mxCell id="2157" value="" style="edgeStyle=elbowEdgeStyle;elbow=horizontal;endArrow=none;html=1;strokeColor=#23445D;endFill=0;strokeWidth=4;rounded=1" parent="1" target="2098" edge="1">
          <mxGeometry width="100" height="100" relative="1" as="geometry">
            <mxPoint x="403" y="209" as="sourcePoint" />
            <mxPoint x="403.33333333333337" y="155.94444444444446" as="targetPoint" />
          </mxGeometry>
        </mxCell>
        <mxCell id="2158" value="" style="edgeStyle=elbowEdgeStyle;elbow=horizontal;endArrow=none;html=1;strokeColor=#23445D;endFill=0;strokeWidth=4;rounded=1" parent="1" target="2099" edge="1">
          <mxGeometry width="100" height="100" relative="1" as="geometry">
            <mxPoint x="337" y="210" as="sourcePoint" />
            <mxPoint x="337.33333333333337" y="156.94444444444446" as="targetPoint" />
          </mxGeometry>
        </mxCell>
        <mxCell id="2159" value="" style="edgeStyle=elbowEdgeStyle;elbow=horizontal;endArrow=none;html=1;strokeColor=#23445D;endFill=0;strokeWidth=4;rounded=1" parent="1" target="2100" edge="1">
          <mxGeometry width="100" height="100" relative="1" as="geometry">
            <mxPoint x="267" y="210" as="sourcePoint" />
            <mxPoint x="266.80555555555554" y="156.94444444444446" as="targetPoint" />
          </mxGeometry>
        </mxCell>
        <mxCell id="2160" value="" style="edgeStyle=elbowEdgeStyle;elbow=horizontal;endArrow=none;html=1;strokeColor=#23445D;endFill=0;strokeWidth=4;rounded=1" parent="1" target="2097" edge="1">
          <mxGeometry width="100" height="100" relative="1" as="geometry">
            <mxPoint x="199" y="210" as="sourcePoint" />
            <mxPoint x="198.80555555555554" y="156.94444444444446" as="targetPoint" />
          </mxGeometry>
        </mxCell>
        <mxCell id="2161" value="" style="edgeStyle=elbowEdgeStyle;elbow=horizontal;endArrow=none;html=1;strokeColor=#23445D;endFill=0;strokeWidth=4;rounded=1" parent="1" target="2096" edge="1">
          <mxGeometry width="100" height="100" relative="1" as="geometry">
            <mxPoint x="96" y="210" as="sourcePoint" />
            <mxPoint x="96.30555555555554" y="156.25" as="targetPoint" />
          </mxGeometry>
        </mxCell>
        <mxCell id="2162" value="" style="edgeStyle=elbowEdgeStyle;elbow=horizontal;endArrow=none;html=1;strokeColor=#23445D;endFill=0;strokeWidth=4;rounded=1" parent="1" target="2107" edge="1">
          <mxGeometry width="100" height="100" relative="1" as="geometry">
            <mxPoint x="465" y="210" as="sourcePoint" />
            <mxPoint x="465" y="240" as="targetPoint" />
          </mxGeometry>
        </mxCell>
        <mxCell id="2163" value="" style="edgeStyle=elbowEdgeStyle;elbow=horizontal;endArrow=none;html=1;strokeColor=#23445D;endFill=0;strokeWidth=4;rounded=1" parent="1" source="2107" edge="1">
          <mxGeometry width="100" height="100" relative="1" as="geometry">
            <mxPoint x="465.0000000000001" y="303" as="sourcePoint" />
            <mxPoint x="465.2777777777774" y="345.0833333333335" as="targetPoint" />
          </mxGeometry>
        </mxCell>
        <mxCell id="2164" value="" style="edgeStyle=elbowEdgeStyle;elbow=horizontal;endArrow=none;html=1;strokeColor=#23445D;endFill=0;strokeWidth=4;rounded=1" parent="1" source="2103" edge="1">
          <mxGeometry width="100" height="100" relative="1" as="geometry">
            <mxPoint x="1259" y="170" as="sourcePoint" />
            <mxPoint x="1259.2777777777774" y="212.08333333333348" as="targetPoint" />
          </mxGeometry>
        </mxCell>
        <mxCell id="2165" value="" style="edgeStyle=elbowEdgeStyle;elbow=horizontal;endArrow=none;html=1;strokeColor=#23445D;endFill=0;strokeWidth=4;rounded=1" parent="1" source="2104" edge="1">
          <mxGeometry width="100" height="100" relative="1" as="geometry">
            <mxPoint x="1331" y="170.00000000000006" as="sourcePoint" />
            <mxPoint x="1331.2777777777783" y="212.08333333333348" as="targetPoint" />
          </mxGeometry>
        </mxCell>
        <mxCell id="2166" value="" style="edgeStyle=elbowEdgeStyle;elbow=horizontal;endArrow=none;html=1;strokeColor=#23445D;endFill=0;strokeWidth=4;rounded=1" parent="1" source="2105" edge="1">
          <mxGeometry width="100" height="100" relative="1" as="geometry">
            <mxPoint x="1415" y="170.00000000000006" as="sourcePoint" />
            <mxPoint x="1415.2777777777774" y="212.08333333333348" as="targetPoint" />
          </mxGeometry>
        </mxCell>
        <mxCell id="2167" value="" style="edgeStyle=elbowEdgeStyle;elbow=horizontal;endArrow=none;html=1;strokeColor=#23445D;endFill=0;strokeWidth=4;rounded=1" parent="1" source="2106" edge="1">
          <mxGeometry width="100" height="100" relative="1" as="geometry">
            <mxPoint x="1500" y="170.00000000000006" as="sourcePoint" />
            <mxPoint x="1500.2777777777774" y="212.08333333333348" as="targetPoint" />
          </mxGeometry>
        </mxCell>
        <mxCell id="2168" value="" style="edgeStyle=elbowEdgeStyle;elbow=horizontal;endArrow=none;html=1;strokeColor=#23445D;endFill=0;strokeWidth=4;rounded=1" parent="1" target="2108" edge="1">
          <mxGeometry width="100" height="100" relative="1" as="geometry">
            <mxPoint x="1244" y="212" as="sourcePoint" />
            <mxPoint x="1244.2777777777778" y="254.08333333333337" as="targetPoint" />
          </mxGeometry>
        </mxCell>
        <mxCell id="2169" value="" style="edgeStyle=elbowEdgeStyle;elbow=horizontal;endArrow=none;html=1;strokeColor=#23445D;endFill=0;strokeWidth=4;rounded=1" parent="1" source="2108" edge="1">
          <mxGeometry width="100" height="100" relative="1" as="geometry">
            <mxPoint x="1244" y="303.00000000000006" as="sourcePoint" />
            <mxPoint x="1244.2777777777774" y="345.0833333333335" as="targetPoint" />
          </mxGeometry>
        </mxCell>
        <mxCell id="2170" value="" style="elbow=horizontal;endArrow=none;html=1;strokeColor=#23445D;endFill=0;strokeWidth=4;rounded=1" parent="1" source="2108" target="2138" edge="1">
          <mxGeometry width="100" height="100" relative="1" as="geometry">
            <mxPoint x="1210" y="198.00000000000006" as="sourcePoint" />
            <mxPoint x="1210.2777777777778" y="240.08333333333337" as="targetPoint" />
          </mxGeometry>
        </mxCell>
        <mxCell id="2171" value="" style="elbow=horizontal;endArrow=none;html=1;strokeColor=#23445D;endFill=0;strokeWidth=4;rounded=1" parent="1" source="2108" target="2111" edge="1">
          <mxGeometry width="100" height="100" relative="1" as="geometry">
            <mxPoint x="1220" y="208.00000000000006" as="sourcePoint" />
            <mxPoint x="1220.2777777777778" y="250.08333333333337" as="targetPoint" />
          </mxGeometry>
        </mxCell>
        <mxCell id="2172" style="edgeStyle=none;rounded=1;html=1;strokeColor=#23445D;endArrow=none;endFill=0;strokeWidth=4" parent="1" source="2112" target="2114" edge="1">
          <mxGeometry relative="1" as="geometry" />
        </mxCell>
        <mxCell id="2173" style="edgeStyle=none;rounded=1;html=1;strokeColor=#23445D;endArrow=none;endFill=0;strokeWidth=4" parent="1" source="2112" target="2116" edge="1">
          <mxGeometry relative="1" as="geometry" />
        </mxCell>
        <mxCell id="2174" style="edgeStyle=none;rounded=1;html=1;strokeColor=#23445D;endArrow=none;endFill=0;strokeWidth=4" parent="1" source="2112" target="2132" edge="1">
          <mxGeometry relative="1" as="geometry">
            <mxPoint x="750" y="380" as="sourcePoint" />
          </mxGeometry>
        </mxCell>
        <mxCell id="2175" style="edgeStyle=none;rounded=1;html=1;strokeColor=#23445D;endArrow=none;endFill=0;strokeWidth=4" parent="1" source="2113" target="2115" edge="1">
          <mxGeometry relative="1" as="geometry" />
        </mxCell>
        <mxCell id="2176" style="edgeStyle=none;rounded=1;html=1;strokeColor=#23445D;endArrow=none;endFill=0;strokeWidth=4" parent="1" source="2113" target="2117" edge="1">
          <mxGeometry relative="1" as="geometry" />
        </mxCell>
        <mxCell id="2177" style="edgeStyle=none;rounded=1;html=1;strokeColor=#23445D;endArrow=none;endFill=0;strokeWidth=4" parent="1" source="2113" target="2133" edge="1">
          <mxGeometry relative="1" as="geometry" />
        </mxCell>
        <mxCell id="2178" value="" style="edgeStyle=elbowEdgeStyle;elbow=horizontal;endArrow=none;html=1;strokeColor=#23445D;endFill=0;strokeWidth=4;rounded=1" parent="1" target="2112" edge="1">
          <mxGeometry width="100" height="100" relative="1" as="geometry">
            <mxPoint x="663" y="345" as="sourcePoint" />
            <mxPoint x="663.2777777777778" y="387.08333333333337" as="targetPoint" />
          </mxGeometry>
        </mxCell>
        <mxCell id="2179" value="" style="edgeStyle=elbowEdgeStyle;elbow=horizontal;endArrow=none;html=1;strokeColor=#23445D;endFill=0;strokeWidth=4;rounded=1" parent="1" target="2113" edge="1">
          <mxGeometry width="100" height="100" relative="1" as="geometry">
            <mxPoint x="1272" y="345" as="sourcePoint" />
            <mxPoint x="1272.2777777777778" y="387.08333333333337" as="targetPoint" />
          </mxGeometry>
        </mxCell>
        <mxCell id="2180" style="edgeStyle=orthogonalEdgeStyle;rounded=1;html=1;strokeColor=#23445D;endArrow=none;endFill=0;strokeWidth=4" parent="1" source="2114" target="2126" edge="1">
          <mxGeometry relative="1" as="geometry">
            <Array as="points">
              <mxPoint x="193" y="559" />
            </Array>
          </mxGeometry>
        </mxCell>
        <mxCell id="2181" style="edgeStyle=orthogonalEdgeStyle;rounded=1;html=1;strokeColor=#23445D;endArrow=none;endFill=0;strokeWidth=4" parent="1" source="2114" target="2128" edge="1">
          <mxGeometry relative="1" as="geometry">
            <Array as="points">
              <mxPoint x="193" y="629" />
            </Array>
          </mxGeometry>
        </mxCell>
        <mxCell id="2182" style="edgeStyle=orthogonalEdgeStyle;rounded=1;html=1;strokeColor=#23445D;endArrow=none;endFill=0;strokeWidth=4" parent="1" source="2114" target="2129" edge="1">
          <mxGeometry relative="1" as="geometry">
            <Array as="points">
              <mxPoint x="193" y="709" />
            </Array>
          </mxGeometry>
        </mxCell>
        <mxCell id="2183" style="edgeStyle=orthogonalEdgeStyle;rounded=1;html=1;strokeColor=#23445D;endArrow=none;endFill=0;strokeWidth=4" parent="1" source="2114" target="2130" edge="1">
          <mxGeometry relative="1" as="geometry">
            <Array as="points">
              <mxPoint x="193" y="779" />
            </Array>
          </mxGeometry>
        </mxCell>
        <mxCell id="2184" style="edgeStyle=orthogonalEdgeStyle;rounded=1;html=1;strokeColor=#23445D;endArrow=none;endFill=0;strokeWidth=4" parent="1" source="2114" target="2120" edge="1">
          <mxGeometry relative="1" as="geometry">
            <Array as="points">
              <mxPoint x="193" y="572" />
            </Array>
          </mxGeometry>
        </mxCell>
        <mxCell id="2185" style="edgeStyle=orthogonalEdgeStyle;rounded=1;html=1;strokeColor=#23445D;endArrow=none;endFill=0;strokeWidth=4" parent="1" source="2114" target="2121" edge="1">
          <mxGeometry relative="1" as="geometry">
            <Array as="points">
              <mxPoint x="193" y="640" />
            </Array>
          </mxGeometry>
        </mxCell>
        <mxCell id="2186" style="edgeStyle=orthogonalEdgeStyle;rounded=1;html=1;strokeColor=#23445D;endArrow=none;endFill=0;strokeWidth=4" parent="1" source="2114" target="2123" edge="1">
          <mxGeometry relative="1" as="geometry">
            <Array as="points">
              <mxPoint x="193" y="722" />
            </Array>
          </mxGeometry>
        </mxCell>
        <mxCell id="2187" style="edgeStyle=orthogonalEdgeStyle;rounded=1;html=1;strokeColor=#23445D;endArrow=none;endFill=0;strokeWidth=4" parent="1" source="2114" target="2125" edge="1">
          <mxGeometry relative="1" as="geometry">
            <Array as="points">
              <mxPoint x="193" y="799" />
            </Array>
          </mxGeometry>
        </mxCell>
        <mxCell id="2188" style="rounded=1;html=1;strokeColor=#23445D;endArrow=none;endFill=0;strokeWidth=4" parent="1" source="2115" target="2131" edge="1">
          <mxGeometry relative="1" as="geometry" />
        </mxCell>
        <mxCell id="2189" style="rounded=1;html=1;strokeColor=#23445D;endArrow=none;endFill=0;strokeWidth=4" parent="1" source="2116" target="2119" edge="1">
          <mxGeometry relative="1" as="geometry" />
        </mxCell>
        <mxCell id="2190" style="rounded=1;html=1;strokeColor=#23445D;endArrow=none;endFill=0;strokeWidth=4" parent="1" source="2116" target="2118" edge="1">
          <mxGeometry relative="1" as="geometry" />
        </mxCell>
        <mxCell id="2191" value="" style="line;html=1;strokeColor=#23445D;" parent="1" vertex="1">
          <mxGeometry x="355" y="925" width="245" height="10" as="geometry" />
        </mxCell>
        <mxCell id="2192" style="rounded=1;html=1;entryX=0.224;entryY=0.5;entryPerimeter=0;strokeColor=#23445D;endArrow=none;endFill=0;strokeWidth=4" parent="1" source="2118" target="2191" edge="1">
          <mxGeometry relative="1" as="geometry" />
        </mxCell>
        <mxCell id="2193" style="edgeStyle=orthogonalEdgeStyle;rounded=1;html=1;entryX=0.714;entryY=0.5;entryPerimeter=0;strokeColor=#23445D;endArrow=none;endFill=0;strokeWidth=4" parent="1" source="2119" edge="1">
          <mxGeometry relative="1" as="geometry">
            <mxPoint x="533" y="837" as="sourcePoint" />
            <mxPoint x="533.666666666667" y="930.3333333333335" as="targetPoint" />
            <Array as="points">
              <mxPoint x="534" y="917" />
              <mxPoint x="533" y="917" />
            </Array>
          </mxGeometry>
        </mxCell>
        <mxCell id="2194" style="edgeStyle=orthogonalEdgeStyle;rounded=1;html=1;strokeColor=#23445D;endArrow=none;endFill=0;strokeWidth=4" parent="1" source="2117" target="2140" edge="1">
          <mxGeometry relative="1" as="geometry">
            <Array as="points">
              <mxPoint x="1260" y="566" />
            </Array>
          </mxGeometry>
        </mxCell>
        <mxCell id="2195" style="edgeStyle=orthogonalEdgeStyle;rounded=1;html=1;strokeColor=#23445D;endArrow=none;endFill=0;strokeWidth=4" parent="1" source="2117" target="2142" edge="1">
          <mxGeometry relative="1" as="geometry">
            <Array as="points">
              <mxPoint x="1260" y="636" />
            </Array>
          </mxGeometry>
        </mxCell>
        <mxCell id="2196" style="edgeStyle=orthogonalEdgeStyle;rounded=1;html=1;strokeColor=#23445D;endArrow=none;endFill=0;strokeWidth=4" parent="1" source="2117" target="2143" edge="1">
          <mxGeometry relative="1" as="geometry">
            <Array as="points">
              <mxPoint x="1260" y="706" />
            </Array>
          </mxGeometry>
        </mxCell>
        <mxCell id="2197" style="edgeStyle=orthogonalEdgeStyle;rounded=1;html=1;strokeColor=#23445D;endArrow=none;endFill=0;strokeWidth=4" parent="1" source="2117" target="2144" edge="1">
          <mxGeometry relative="1" as="geometry">
            <Array as="points">
              <mxPoint x="1260" y="786" />
            </Array>
          </mxGeometry>
        </mxCell>
        <mxCell id="2198" style="edgeStyle=orthogonalEdgeStyle;rounded=1;html=1;strokeColor=#23445D;endArrow=none;endFill=0;strokeWidth=4" parent="1" source="2117" target="2141" edge="1">
          <mxGeometry relative="1" as="geometry">
            <Array as="points">
              <mxPoint x="1260" y="856" />
            </Array>
          </mxGeometry>
        </mxCell>
        <mxCell id="2199" style="edgeStyle=orthogonalEdgeStyle;rounded=1;html=1;strokeColor=#23445D;endArrow=none;endFill=0;strokeWidth=4" parent="1" source="2117" target="2145" edge="1">
          <mxGeometry relative="1" as="geometry">
            <Array as="points">
              <mxPoint x="1260" y="926" />
            </Array>
          </mxGeometry>
        </mxCell>
        <mxCell id="2200" style="rounded=1;html=1;strokeColor=#23445D;endArrow=none;endFill=0;strokeWidth=4" parent="1" source="2132" target="2134" edge="1">
          <mxGeometry relative="1" as="geometry" />
        </mxCell>
        <mxCell id="2201" style="rounded=1;html=1;strokeColor=#23445D;endArrow=none;endFill=0;strokeWidth=4" parent="1" source="2133" target="2135" edge="1">
          <mxGeometry relative="1" as="geometry" />
        </mxCell>
        <mxCell id="2202" style="rounded=1;html=1;strokeColor=#23445D;endArrow=none;endFill=0;strokeWidth=4" parent="1" source="2134" target="2136" edge="1">
          <mxGeometry relative="1" as="geometry" />
        </mxCell>
        <mxCell id="2203" style="edgeStyle=orthogonalEdgeStyle;rounded=1;html=1;strokeColor=#23445D;endArrow=none;endFill=0;strokeWidth=4" parent="1" source="2136" target="2147" edge="1">
          <mxGeometry relative="1" as="geometry">
            <Array as="points">
              <mxPoint x="796" y="799" />
            </Array>
          </mxGeometry>
        </mxCell>
        <mxCell id="2204" style="edgeStyle=orthogonalEdgeStyle;rounded=1;html=1;strokeColor=#23445D;endArrow=none;endFill=0;strokeWidth=4" parent="1" source="2136" target="2146" edge="1">
          <mxGeometry relative="1" as="geometry">
            <Array as="points">
              <mxPoint x="796" y="869" />
            </Array>
          </mxGeometry>
        </mxCell>
        <mxCell id="2205" style="edgeStyle=orthogonalEdgeStyle;rounded=1;html=1;strokeColor=#23445D;endArrow=none;endFill=0;strokeWidth=4" parent="1" source="2136" target="2148" edge="1">
          <mxGeometry relative="1" as="geometry">
            <Array as="points">
              <mxPoint x="796" y="939" />
            </Array>
          </mxGeometry>
        </mxCell>
        <mxCell id="2206" style="edgeStyle=orthogonalEdgeStyle;rounded=1;html=1;strokeColor=#23445D;endArrow=none;endFill=0;strokeWidth=4" parent="1" source="2136" target="2151" edge="1">
          <mxGeometry relative="1" as="geometry">
            <Array as="points">
              <mxPoint x="796" y="799" />
            </Array>
          </mxGeometry>
        </mxCell>
        <mxCell id="2207" style="edgeStyle=orthogonalEdgeStyle;rounded=1;html=1;strokeColor=#23445D;endArrow=none;endFill=0;strokeWidth=4" parent="1" source="2136" target="2149" edge="1">
          <mxGeometry relative="1" as="geometry">
            <Array as="points">
              <mxPoint x="796" y="879" />
            </Array>
          </mxGeometry>
        </mxCell>
        <mxCell id="2208" style="edgeStyle=orthogonalEdgeStyle;rounded=1;html=1;strokeColor=#23445D;endArrow=none;endFill=0;strokeWidth=4" parent="1" source="2136" target="2150" edge="1">
          <mxGeometry relative="1" as="geometry">
            <Array as="points">
              <mxPoint x="796" y="950" />
            </Array>
          </mxGeometry>
        </mxCell>
        <mxCell id="2209" style="edgeStyle=orthogonalEdgeStyle;rounded=1;html=1;strokeColor=#23445D;endArrow=none;endFill=0;strokeWidth=4" parent="1" source="2114" target="2127" edge="1">
          <mxGeometry relative="1" as="geometry">
            <Array as="points">
              <mxPoint x="193" y="859" />
            </Array>
          </mxGeometry>
        </mxCell>
        <mxCell id="2210" style="edgeStyle=orthogonalEdgeStyle;rounded=1;html=1;strokeColor=#23445D;endArrow=none;endFill=0;strokeWidth=4" parent="1" source="2114" target="2139" edge="1">
          <mxGeometry relative="1" as="geometry">
            <Array as="points">
              <mxPoint x="193" y="929" />
            </Array>
          </mxGeometry>
        </mxCell>
        <mxCell id="2211" style="edgeStyle=orthogonalEdgeStyle;rounded=1;html=1;strokeColor=#23445D;endArrow=none;endFill=0;strokeWidth=4" parent="1" source="2114" target="2122" edge="1">
          <mxGeometry relative="1" as="geometry">
            <Array as="points">
              <mxPoint x="193" y="869" />
            </Array>
          </mxGeometry>
        </mxCell>
        <mxCell id="2212" style="edgeStyle=orthogonalEdgeStyle;rounded=1;html=1;strokeColor=#23445D;endArrow=none;endFill=0;strokeWidth=4" parent="1" source="2114" target="2124" edge="1">
          <mxGeometry relative="1" as="geometry">
            <Array as="points">
              <mxPoint x="193" y="947" />
            </Array>
          </mxGeometry>
        </mxCell>
        <mxCell id="2213" value="" style="shape=mxgraph.cisco.misc.access_point;html=1;dashed=0;fillColor=#10739E;strokeColor=#ffffff;strokeWidth=2;verticalLabelPosition=bottom;verticalAlign=top;fontFamily=Helvetica;fontSize=36;fontColor=#FFB366" parent="1" vertex="1">
          <mxGeometry x="1517" y="865" width="79" height="34" as="geometry" />
        </mxCell>
        <mxCell id="2214" value="" style="shape=mxgraph.cisco.misc.access_point;html=1;dashed=0;fillColor=#10739E;strokeColor=#ffffff;strokeWidth=2;verticalLabelPosition=bottom;verticalAlign=top;fontFamily=Helvetica;fontSize=36;fontColor=#FFB366" parent="1" vertex="1">
          <mxGeometry x="1517" y="939" width="75" height="34" as="geometry" />
        </mxCell>
        <mxCell id="2215" value="" style="shape=mxgraph.cisco.misc.access_point;html=1;dashed=0;fillColor=#10739E;strokeColor=#ffffff;strokeWidth=2;verticalLabelPosition=bottom;verticalAlign=top;fontFamily=Helvetica;fontSize=36;fontColor=#FFB366" parent="1" vertex="1">
          <mxGeometry x="1517" y="788" width="75" height="34" as="geometry" />
        </mxCell>
        <mxCell id="2216" value="" style="shape=mxgraph.cisco.hubs_and_gateways.100baset_hub;html=1;dashed=0;fillColor=#10739E;strokeColor=#ffffff;strokeWidth=2;verticalLabelPosition=bottom;verticalAlign=top;fontFamily=Helvetica;fontSize=36;fontColor=#FFB366" parent="1" vertex="1">
          <mxGeometry x="1371" y="858" width="90" height="45" as="geometry" />
        </mxCell>
        <mxCell id="2217" value="" style="shape=mxgraph.cisco.hubs_and_gateways.100baset_hub;html=1;dashed=0;fillColor=#10739E;strokeColor=#ffffff;strokeWidth=2;verticalLabelPosition=bottom;verticalAlign=top;fontFamily=Helvetica;fontSize=36;fontColor=#FFB366" parent="1" vertex="1">
          <mxGeometry x="1371" y="785" width="90" height="45" as="geometry" />
        </mxCell>
        <mxCell id="2218" value="" style="shape=mxgraph.cisco.hubs_and_gateways.100baset_hub;html=1;dashed=0;fillColor=#10739E;strokeColor=#ffffff;strokeWidth=2;verticalLabelPosition=bottom;verticalAlign=top;fontFamily=Helvetica;fontSize=36;fontColor=#FFB366" parent="1" vertex="1">
          <mxGeometry x="1371" y="928" width="90" height="45" as="geometry" />
        </mxCell>
        <mxCell id="2219" style="edgeStyle=orthogonalEdgeStyle;rounded=1;html=1;strokeColor=#23445D;endArrow=none;endFill=0;strokeWidth=4" parent="1" source="2135" target="2137" edge="1">
          <mxGeometry relative="1" as="geometry" />
        </mxCell>
        <mxCell id="2220" style="edgeStyle=orthogonalEdgeStyle;rounded=1;html=1;strokeColor=#23445D;endArrow=none;endFill=0;strokeWidth=4" parent="1" source="2137" target="2217" edge="1">
          <mxGeometry relative="1" as="geometry">
            <Array as="points">
              <mxPoint x="1482" y="810" />
            </Array>
          </mxGeometry>
        </mxCell>
        <mxCell id="2221" style="edgeStyle=orthogonalEdgeStyle;rounded=1;html=1;strokeColor=#23445D;endArrow=none;endFill=0;strokeWidth=4" parent="1" source="2137" target="2216" edge="1">
          <mxGeometry relative="1" as="geometry">
            <Array as="points">
              <mxPoint x="1482" y="880" />
            </Array>
          </mxGeometry>
        </mxCell>
        <mxCell id="2222" style="edgeStyle=orthogonalEdgeStyle;rounded=1;html=1;strokeColor=#23445D;endArrow=none;endFill=0;strokeWidth=4" parent="1" source="2137" target="2218" edge="1">
          <mxGeometry relative="1" as="geometry">
            <Array as="points">
              <mxPoint x="1482" y="950" />
            </Array>
          </mxGeometry>
        </mxCell>
        <mxCell id="2223" style="edgeStyle=orthogonalEdgeStyle;rounded=1;html=1;strokeColor=#23445D;endArrow=none;endFill=0;strokeWidth=4" parent="1" source="2137" target="2215" edge="1">
          <mxGeometry relative="1" as="geometry">
            <Array as="points">
              <mxPoint x="1482" y="800" />
            </Array>
          </mxGeometry>
        </mxCell>
        <mxCell id="2224" style="edgeStyle=orthogonalEdgeStyle;rounded=1;html=1;strokeColor=#23445D;endArrow=none;endFill=0;strokeWidth=4" parent="1" source="2137" target="2213" edge="1">
          <mxGeometry relative="1" as="geometry">
            <Array as="points">
              <mxPoint x="1482" y="870" />
            </Array>
          </mxGeometry>
        </mxCell>
        <mxCell id="2225" style="edgeStyle=orthogonalEdgeStyle;rounded=1;html=1;strokeColor=#23445D;endArrow=none;endFill=0;strokeWidth=4" parent="1" source="2137" target="2214" edge="1">
          <mxGeometry relative="1" as="geometry">
            <Array as="points">
              <mxPoint x="1482" y="950" />
            </Array>
          </mxGeometry>
        </mxCell>
        <mxCell id="2226" value="&lt;font color=&quot;#23445d&quot;&gt;Management and core servers&lt;/font&gt;" style="rounded=1;whiteSpace=wrap;html=1;strokeColor=none;fillColor=none;fontSize=14;fontColor=#742B21;align=center;fontStyle=1" parent="1" vertex="1">
          <mxGeometry x="263" y="42" width="225" height="19" as="geometry" />
        </mxCell>
        <mxCell id="2227" value="&lt;font color=&quot;#23445d&quot;&gt;External servers&lt;/font&gt;" style="rounded=1;whiteSpace=wrap;html=1;strokeColor=none;fillColor=none;fontSize=14;fontColor=#742B21;align=center;fontStyle=1" parent="1" vertex="1">
          <mxGeometry x="1315" y="42" width="143" height="19" as="geometry" />
        </mxCell>
        <mxCell id="2228" value="&lt;font color=&quot;#23445d&quot;&gt;WAN&lt;/font&gt;" style="rounded=1;whiteSpace=wrap;html=1;strokeColor=none;fillColor=none;fontSize=14;fontColor=#742B21;align=center;fontStyle=1" parent="1" vertex="1">
          <mxGeometry x="1447" y="434" width="73" height="19" as="geometry" />
        </mxCell>
        <mxCell id="2229" value="Access 4" style="rounded=1;whiteSpace=wrap;html=1;strokeColor=none;fillColor=none;fontSize=14;fontColor=#23445D;align=center;fontStyle=1" parent="1" vertex="1">
          <mxGeometry x="1436" y="991" width="98" height="19" as="geometry" />
        </mxCell>
        <mxCell id="2230" value="Access 2" style="rounded=1;whiteSpace=wrap;html=1;strokeColor=none;fillColor=none;fontSize=14;fontColor=#23445D;align=center;fontStyle=1" parent="1" vertex="1">
          <mxGeometry x="745" y="1113" width="96" height="19" as="geometry" />
        </mxCell>
        <mxCell id="2231" value="Access 3" style="rounded=1;whiteSpace=wrap;html=1;strokeColor=none;fillColor=none;fontSize=14;fontColor=#23445D;align=center;fontStyle=1" parent="1" vertex="1">
          <mxGeometry x="1167" y="1112" width="78" height="20" as="geometry" />
        </mxCell>
        <mxCell id="2232" value="&lt;font color=&quot;#23445d&quot;&gt;Expansion&lt;/font&gt;" style="rounded=1;whiteSpace=wrap;html=1;strokeColor=none;fillColor=none;fontSize=14;fontColor=#742B21;align=center;fontStyle=1" parent="1" vertex="1">
          <mxGeometry x="417" y="953" width="109" height="19" as="geometry" />
        </mxCell>
        <mxCell id="2233" value="Access 1" style="rounded=1;whiteSpace=wrap;html=1;strokeColor=none;fillColor=none;fontSize=14;fontColor=#23445D;align=center;fontStyle=1" parent="1" vertex="1">
          <mxGeometry x="142" y="1130" width="93" height="19" as="geometry" />
        </mxCell>
        <mxCell id="2234" value="" style="shape=mxgraph.cisco.hubs_and_gateways.100baset_hub;html=1;dashed=0;fillColor=#10739E;strokeColor=#ffffff;strokeWidth=2;verticalLabelPosition=bottom;verticalAlign=top;fontFamily=Helvetica;fontSize=36;fontColor=#FFB366" parent="1" vertex="1">
          <mxGeometry x="59" y="1071" width="90" height="45" as="geometry" />
        </mxCell>
        <mxCell id="2235" value="" style="shape=mxgraph.cisco.hubs_and_gateways.100baset_hub;html=1;dashed=0;fillColor=#10739E;strokeColor=#ffffff;strokeWidth=2;verticalLabelPosition=bottom;verticalAlign=top;fontFamily=Helvetica;fontSize=36;fontColor=#FFB366" parent="1" vertex="1">
          <mxGeometry x="59" y="998" width="90" height="45" as="geometry" />
        </mxCell>
        <mxCell id="2236" value="" style="shape=mxgraph.cisco.misc.access_point;html=1;dashed=0;fillColor=#10739E;strokeColor=#ffffff;strokeWidth=2;verticalLabelPosition=bottom;verticalAlign=top;fontFamily=Helvetica;fontSize=36;fontColor=#FFB366" parent="1" vertex="1">
          <mxGeometry x="223" y="1000" width="75" height="34" as="geometry" />
        </mxCell>
        <mxCell id="2237" value="" style="shape=mxgraph.cisco.misc.access_point;html=1;dashed=0;fillColor=#10739E;strokeColor=#ffffff;strokeWidth=2;verticalLabelPosition=bottom;verticalAlign=top;fontFamily=Helvetica;fontSize=36;fontColor=#FFB366" parent="1" vertex="1">
          <mxGeometry x="223" y="1078" width="75" height="34" as="geometry" />
        </mxCell>
        <mxCell id="2238" style="edgeStyle=orthogonalEdgeStyle;rounded=1;html=1;endArrow=none;endFill=0;strokeColor=#23445D;strokeWidth=4;fontSize=14;fontColor=#990000" parent="1" source="2114" target="2237" edge="1">
          <mxGeometry relative="1" as="geometry">
            <Array as="points">
              <mxPoint x="193" y="1095" />
            </Array>
          </mxGeometry>
        </mxCell>
        <mxCell id="2239" style="edgeStyle=orthogonalEdgeStyle;rounded=1;html=1;endArrow=none;endFill=0;strokeColor=#23445D;strokeWidth=4;fontSize=14;fontColor=#990000" parent="1" source="2114" target="2236" edge="1">
          <mxGeometry relative="1" as="geometry">
            <Array as="points">
              <mxPoint x="193" y="1017" />
            </Array>
          </mxGeometry>
        </mxCell>
        <mxCell id="2240" style="edgeStyle=orthogonalEdgeStyle;rounded=1;html=1;endArrow=none;endFill=0;strokeColor=#23445D;strokeWidth=4;fontSize=14;fontColor=#990000" parent="1" source="2114" target="2235" edge="1">
          <mxGeometry relative="1" as="geometry">
            <Array as="points">
              <mxPoint x="193" y="1010" />
            </Array>
          </mxGeometry>
        </mxCell>
        <mxCell id="2241" style="edgeStyle=orthogonalEdgeStyle;rounded=1;html=1;endArrow=none;endFill=0;strokeColor=#23445D;strokeWidth=4;fontSize=14;fontColor=#990000" parent="1" source="2114" target="2234" edge="1">
          <mxGeometry relative="1" as="geometry">
            <Array as="points">
              <mxPoint x="193" y="1080" />
            </Array>
          </mxGeometry>
        </mxCell>
        <mxCell id="2242" value="" style="shape=mxgraph.cisco.switches.workgroup_switch;html=1;dashed=0;fillColor=#10739E;strokeColor=#ffffff;strokeWidth=2;verticalLabelPosition=bottom;verticalAlign=top;fontFamily=Helvetica;fontSize=36;fontColor=#FFB366" parent="1" vertex="1">
          <mxGeometry x="421" y="782" width="101" height="50" as="geometry" />
        </mxCell>
        <mxCell id="2243" style="rounded=1;html=1;entryX=0.224;entryY=0.5;entryPerimeter=0;strokeColor=#23445D;endArrow=none;endFill=0;strokeWidth=4" parent="1" source="2242" edge="1">
          <mxGeometry relative="1" as="geometry">
            <mxPoint x="472.5606936416185" y="746.2427745664738" as="sourcePoint" />
            <mxPoint x="470.8265895953755" y="930.057803468208" as="targetPoint" />
          </mxGeometry>
        </mxCell>
        <mxCell id="2244" style="rounded=1;html=1;endArrow=none;endFill=0;strokeColor=#23445D;strokeWidth=4;fontSize=14;fontColor=#990000" parent="1" source="2116" target="2242" edge="1">
          <mxGeometry relative="1" as="geometry" />
        </mxCell>
        <mxCell id="2245" value="" style="shape=mxgraph.cisco.hubs_and_gateways.100baset_hub;html=1;dashed=0;fillColor=#10739E;strokeColor=#ffffff;strokeWidth=2;verticalLabelPosition=bottom;verticalAlign=top;fontFamily=Helvetica;fontSize=36;fontColor=#FFB366" parent="1" vertex="1">
          <mxGeometry x="672" y="991" width="90" height="45" as="geometry" />
        </mxCell>
        <mxCell id="2246" value="" style="shape=mxgraph.cisco.hubs_and_gateways.100baset_hub;html=1;dashed=0;fillColor=#10739E;strokeColor=#ffffff;strokeWidth=2;verticalLabelPosition=bottom;verticalAlign=top;fontFamily=Helvetica;fontSize=36;fontColor=#FFB366" parent="1" vertex="1">
          <mxGeometry x="672" y="1061" width="90" height="45" as="geometry" />
        </mxCell>
        <mxCell id="2247" value="" style="shape=mxgraph.cisco.misc.access_point;html=1;dashed=0;fillColor=#10739E;strokeColor=#ffffff;strokeWidth=2;verticalLabelPosition=bottom;verticalAlign=top;fontFamily=Helvetica;fontSize=36;fontColor=#FFB366" parent="1" vertex="1">
          <mxGeometry x="813" y="991" width="79" height="34" as="geometry" />
        </mxCell>
        <mxCell id="2248" value="" style="shape=mxgraph.cisco.misc.access_point;html=1;dashed=0;fillColor=#10739E;strokeColor=#ffffff;strokeWidth=2;verticalLabelPosition=bottom;verticalAlign=top;fontFamily=Helvetica;fontSize=36;fontColor=#FFB366" parent="1" vertex="1">
          <mxGeometry x="813" y="1065" width="75" height="34" as="geometry" />
        </mxCell>
        <mxCell id="2249" style="edgeStyle=orthogonalEdgeStyle;rounded=1;html=1;endArrow=none;endFill=0;strokeColor=#23445D;strokeWidth=4;fontSize=14;fontColor=#990000" parent="1" source="2136" target="2247" edge="1">
          <mxGeometry relative="1" as="geometry">
            <Array as="points">
              <mxPoint x="795" y="1008" />
            </Array>
          </mxGeometry>
        </mxCell>
        <mxCell id="2250" style="edgeStyle=orthogonalEdgeStyle;rounded=1;html=1;endArrow=none;endFill=0;strokeColor=#23445D;strokeWidth=4;fontSize=14;fontColor=#990000" parent="1" source="2136" target="2248" edge="1">
          <mxGeometry relative="1" as="geometry">
            <Array as="points">
              <mxPoint x="795" y="1082" />
            </Array>
          </mxGeometry>
        </mxCell>
        <mxCell id="2251" style="edgeStyle=orthogonalEdgeStyle;rounded=1;html=1;endArrow=none;endFill=0;strokeColor=#23445D;strokeWidth=4;fontSize=14;fontColor=#990000" parent="1" source="2136" target="2245" edge="1">
          <mxGeometry relative="1" as="geometry">
            <Array as="points">
              <mxPoint x="795" y="1000" />
            </Array>
          </mxGeometry>
        </mxCell>
        <mxCell id="2252" style="edgeStyle=orthogonalEdgeStyle;rounded=1;html=1;endArrow=none;endFill=0;strokeColor=#23445D;strokeWidth=4;fontSize=14;fontColor=#990000" parent="1" source="2136" target="2246" edge="1">
          <mxGeometry relative="1" as="geometry">
            <Array as="points">
              <mxPoint x="795" y="1070" />
            </Array>
          </mxGeometry>
        </mxCell>
        <mxCell id="2253" value="" style="shape=mxgraph.cisco.hubs_and_gateways.100baset_hub;html=1;dashed=0;fillColor=#10739E;strokeColor=#ffffff;strokeWidth=2;verticalLabelPosition=bottom;verticalAlign=top;fontFamily=Helvetica;fontSize=36;fontColor=#FFB366" parent="1" vertex="1">
          <mxGeometry x="1137" y="984" width="90" height="45" as="geometry" />
        </mxCell>
        <mxCell id="2254" value="" style="shape=mxgraph.cisco.hubs_and_gateways.100baset_hub;html=1;dashed=0;fillColor=#10739E;strokeColor=#ffffff;strokeWidth=2;verticalLabelPosition=bottom;verticalAlign=top;fontFamily=Helvetica;fontSize=36;fontColor=#FFB366" parent="1" vertex="1">
          <mxGeometry x="1137" y="1054" width="90" height="45" as="geometry" />
        </mxCell>
        <mxCell id="2255" style="edgeStyle=orthogonalEdgeStyle;rounded=1;html=1;endArrow=none;endFill=0;strokeColor=#23445D;strokeWidth=4;fontSize=14;fontColor=#990000" parent="1" source="2117" target="2253" edge="1">
          <mxGeometry relative="1" as="geometry">
            <Array as="points">
              <mxPoint x="1260" y="1000" />
            </Array>
          </mxGeometry>
        </mxCell>
        <mxCell id="2256" style="edgeStyle=orthogonalEdgeStyle;rounded=1;html=1;endArrow=none;endFill=0;strokeColor=#23445D;strokeWidth=4;fontSize=14;fontColor=#990000" parent="1" source="2117" target="2254" edge="1">
          <mxGeometry relative="1" as="geometry">
            <Array as="points">
              <mxPoint x="1260" y="1070" />
            </Array>
          </mxGeometry>
        </mxCell>
        <mxCell id="2257" style="edgeStyle=orthogonalEdgeStyle;curved=1;rounded=0;jumpStyle=none;html=1;exitX=0.75;exitY=0;entryX=0.75;entryY=0;shadow=0;labelBackgroundColor=#ffffff;startArrow=none;startFill=0;endArrow=none;endFill=0;endSize=10;jettySize=auto;orthogonalLoop=1;strokeColor=#23445D;strokeWidth=2;fillColor=#F08705;fontFamily=Helvetica;fontSize=25;fontColor=#23445D;align=left;" parent="1" source="2087" target="2087" edge="1">
          <mxGeometry relative="1" as="geometry" />
        </mxCell>
        <mxCell id="Qpk1EburZ4kJQWrD6RQ1-2257" value="" style="shape=mxgraph.cisco.computers_and_peripherals.workstation;html=1;dashed=0;fillColor=#10739E;strokeColor=#ffffff;strokeWidth=2;verticalLabelPosition=bottom;verticalAlign=top;fontFamily=Helvetica;fontSize=36;fontColor=#FFB366" vertex="1" parent="1">
          <mxGeometry x="-1167" y="246" width="83" height="62" as="geometry" />
        </mxCell>
        <mxCell id="Qpk1EburZ4kJQWrD6RQ1-2258" value="" style="shape=mxgraph.cisco.servers.storage_server;html=1;dashed=0;fillColor=#10739E;strokeColor=#ffffff;strokeWidth=2;verticalLabelPosition=bottom;verticalAlign=top;fontFamily=Helvetica;fontSize=36;fontColor=#FFB366" vertex="1" parent="1">
          <mxGeometry x="-1075" y="406" width="54" height="51.5" as="geometry" />
        </mxCell>
        <mxCell id="Qpk1EburZ4kJQWrD6RQ1-2261" value="" style="shape=mxgraph.cisco.servers.storage_server;html=1;dashed=0;fillColor=#10739E;strokeColor=#ffffff;strokeWidth=2;verticalLabelPosition=bottom;verticalAlign=top;fontFamily=Helvetica;fontSize=36;fontColor=#FFB366" vertex="1" parent="1">
          <mxGeometry x="-1015" y="406" width="58" height="51.5" as="geometry" />
        </mxCell>
        <mxCell id="Qpk1EburZ4kJQWrD6RQ1-2264" value="" style="shape=mxgraph.cisco.servers.fileserver;html=1;dashed=0;fillColor=#10739E;strokeColor=#ffffff;strokeWidth=2;verticalLabelPosition=bottom;verticalAlign=top;fontFamily=Helvetica;fontSize=36;fontColor=#FFB366" vertex="1" parent="1">
          <mxGeometry x="-1147" y="445" width="43" height="62" as="geometry" />
        </mxCell>
        <mxCell id="Qpk1EburZ4kJQWrD6RQ1-2265" value="" style="shape=mxgraph.cisco.switches.workgroup_switch;html=1;dashed=0;fillColor=#10739E;strokeColor=#ffffff;strokeWidth=2;verticalLabelPosition=bottom;verticalAlign=top;fontFamily=Helvetica;fontSize=36;fontColor=#FFB366" vertex="1" parent="1">
          <mxGeometry x="-1065" y="521" width="101" height="50" as="geometry" />
        </mxCell>
        <mxCell id="Qpk1EburZ4kJQWrD6RQ1-2266" value="" style="shape=mxgraph.cisco.switches.workgroup_switch;html=1;dashed=0;fillColor=#10739E;strokeColor=#ffffff;strokeWidth=2;verticalLabelPosition=bottom;verticalAlign=top;fontFamily=Helvetica;fontSize=36;fontColor=#FFB366" vertex="1" parent="1">
          <mxGeometry x="-1181" y="93" width="101" height="50" as="geometry" />
        </mxCell>
        <mxCell id="Qpk1EburZ4kJQWrD6RQ1-2268" value="" style="shape=mxgraph.cisco.computers_and_peripherals.ibm_mainframe;html=1;dashed=0;fillColor=#10739E;strokeColor=#ffffff;strokeWidth=2;verticalLabelPosition=bottom;verticalAlign=top;fontFamily=Helvetica;fontSize=36;fontColor=#FFB366" vertex="1" parent="1">
          <mxGeometry x="-1475" y="441" width="50" height="70" as="geometry" />
        </mxCell>
        <mxCell id="Qpk1EburZ4kJQWrD6RQ1-2269" value="" style="shape=mxgraph.cisco.computers_and_peripherals.ibm_mainframe;html=1;dashed=0;fillColor=#10739E;strokeColor=#ffffff;strokeWidth=2;verticalLabelPosition=bottom;verticalAlign=top;fontFamily=Helvetica;fontSize=36;fontColor=#FFB366" vertex="1" parent="1">
          <mxGeometry x="-1510" y="715.75" width="50" height="70" as="geometry" />
        </mxCell>
        <mxCell id="Qpk1EburZ4kJQWrD6RQ1-2270" value="" style="shape=mxgraph.cisco.computers_and_peripherals.ibm_mainframe;html=1;dashed=0;fillColor=#10739E;strokeColor=#ffffff;strokeWidth=2;verticalLabelPosition=bottom;verticalAlign=top;fontFamily=Helvetica;fontSize=36;fontColor=#FFB366" vertex="1" parent="1">
          <mxGeometry x="-1135" y="716.5" width="50" height="70" as="geometry" />
        </mxCell>
        <mxCell id="Qpk1EburZ4kJQWrD6RQ1-2271" value="" style="shape=mxgraph.cisco.computers_and_peripherals.ibm_mainframe;html=1;dashed=0;fillColor=#10739E;strokeColor=#ffffff;strokeWidth=2;verticalLabelPosition=bottom;verticalAlign=top;fontFamily=Helvetica;fontSize=36;fontColor=#FFB366" vertex="1" parent="1">
          <mxGeometry x="-760" y="719" width="50" height="70" as="geometry" />
        </mxCell>
        <mxCell id="Qpk1EburZ4kJQWrD6RQ1-2277" value="" style="endArrow=none;html=1;rounded=0;" edge="1" parent="1">
          <mxGeometry width="50" height="50" relative="1" as="geometry">
            <mxPoint x="-1485" y="657" as="sourcePoint" />
            <mxPoint x="-730" y="657" as="targetPoint" />
          </mxGeometry>
        </mxCell>
        <mxCell id="Qpk1EburZ4kJQWrD6RQ1-2278" value="" style="endArrow=classic;startArrow=classic;html=1;rounded=0;exitX=1;exitY=0.5;exitDx=0;exitDy=0;exitPerimeter=0;entryX=0;entryY=0.5;entryDx=0;entryDy=0;entryPerimeter=0;" edge="1" parent="1" source="Qpk1EburZ4kJQWrD6RQ1-2268" target="Qpk1EburZ4kJQWrD6RQ1-2264">
          <mxGeometry width="50" height="50" relative="1" as="geometry">
            <mxPoint x="-1425" y="481" as="sourcePoint" />
            <mxPoint x="-1375" y="431" as="targetPoint" />
          </mxGeometry>
        </mxCell>
        <mxCell id="Qpk1EburZ4kJQWrD6RQ1-2280" value="" style="endArrow=classic;startArrow=classic;html=1;rounded=0;exitX=0.5;exitY=0;exitDx=0;exitDy=0;exitPerimeter=0;" edge="1" parent="1" source="Qpk1EburZ4kJQWrD6RQ1-2269">
          <mxGeometry width="50" height="50" relative="1" as="geometry">
            <mxPoint x="-1500" y="706.25" as="sourcePoint" />
            <mxPoint x="-1485" y="656.25" as="targetPoint" />
          </mxGeometry>
        </mxCell>
        <mxCell id="Qpk1EburZ4kJQWrD6RQ1-2282" value="" style="endArrow=classic;startArrow=classic;html=1;rounded=0;exitX=0.5;exitY=0;exitDx=0;exitDy=0;exitPerimeter=0;" edge="1" parent="1" source="Qpk1EburZ4kJQWrD6RQ1-2270">
          <mxGeometry width="50" height="50" relative="1" as="geometry">
            <mxPoint x="-1300" y="726.5000000000005" as="sourcePoint" />
            <mxPoint x="-1110" y="657" as="targetPoint" />
          </mxGeometry>
        </mxCell>
        <mxCell id="Qpk1EburZ4kJQWrD6RQ1-2283" value="" style="endArrow=classic;startArrow=classic;html=1;rounded=0;entryX=0.5;entryY=0;entryDx=0;entryDy=0;entryPerimeter=0;" edge="1" parent="1" target="Qpk1EburZ4kJQWrD6RQ1-2271">
          <mxGeometry width="50" height="50" relative="1" as="geometry">
            <mxPoint x="-735" y="658" as="sourcePoint" />
            <mxPoint x="-1115" y="678" as="targetPoint" />
          </mxGeometry>
        </mxCell>
        <mxCell id="Qpk1EburZ4kJQWrD6RQ1-2284" value="" style="endArrow=classic;startArrow=classic;html=1;rounded=0;entryX=0.5;entryY=0.96;entryDx=0;entryDy=0;entryPerimeter=0;" edge="1" parent="1" target="Qpk1EburZ4kJQWrD6RQ1-2268">
          <mxGeometry width="50" height="50" relative="1" as="geometry">
            <mxPoint x="-1450" y="656" as="sourcePoint" />
            <mxPoint x="-1065" y="426" as="targetPoint" />
          </mxGeometry>
        </mxCell>
        <mxCell id="Qpk1EburZ4kJQWrD6RQ1-2294" value="" style="endArrow=classic;startArrow=classic;html=1;rounded=0;entryX=0.5;entryY=1;entryDx=0;entryDy=0;entryPerimeter=0;exitX=0.79;exitY=-0.027;exitDx=0;exitDy=0;exitPerimeter=0;" edge="1" parent="1" source="Qpk1EburZ4kJQWrD6RQ1-2265" target="Qpk1EburZ4kJQWrD6RQ1-2261">
          <mxGeometry width="50" height="50" relative="1" as="geometry">
            <mxPoint x="-1005" y="556" as="sourcePoint" />
            <mxPoint x="-955" y="506" as="targetPoint" />
          </mxGeometry>
        </mxCell>
        <mxCell id="Qpk1EburZ4kJQWrD6RQ1-2296" value="" style="endArrow=classic;startArrow=classic;html=1;rounded=0;exitX=0.5;exitY=0;exitDx=0;exitDy=0;exitPerimeter=0;" edge="1" parent="1" source="Qpk1EburZ4kJQWrD6RQ1-2265">
          <mxGeometry width="50" height="50" relative="1" as="geometry">
            <mxPoint x="-1035" y="517.0000000000005" as="sourcePoint" />
            <mxPoint x="-1035" y="457.5" as="targetPoint" />
            <Array as="points">
              <mxPoint x="-1015" y="496" />
              <mxPoint x="-1035" y="496" />
            </Array>
          </mxGeometry>
        </mxCell>
        <mxCell id="Qpk1EburZ4kJQWrD6RQ1-2297" value="" style="endArrow=classic;startArrow=classic;html=1;rounded=0;exitX=0.001;exitY=0.766;exitDx=0;exitDy=0;exitPerimeter=0;" edge="1" parent="1" source="Qpk1EburZ4kJQWrD6RQ1-2265">
          <mxGeometry width="50" height="50" relative="1" as="geometry">
            <mxPoint x="-1125" y="563.5000000000005" as="sourcePoint" />
            <mxPoint x="-1125" y="504" as="targetPoint" />
            <Array as="points">
              <mxPoint x="-1125" y="559" />
            </Array>
          </mxGeometry>
        </mxCell>
        <mxCell id="Qpk1EburZ4kJQWrD6RQ1-2298" value="" style="endArrow=classic;startArrow=classic;html=1;rounded=0;entryX=0.5;entryY=1;entryDx=0;entryDy=0;entryPerimeter=0;exitX=0.5;exitY=0;exitDx=0;exitDy=0;exitPerimeter=0;" edge="1" parent="1" source="Qpk1EburZ4kJQWrD6RQ1-2264" target="Qpk1EburZ4kJQWrD6RQ1-2257">
          <mxGeometry width="50" height="50" relative="1" as="geometry">
            <mxPoint x="-1165" y="386" as="sourcePoint" />
            <mxPoint x="-1115" y="336" as="targetPoint" />
          </mxGeometry>
        </mxCell>
        <mxCell id="Qpk1EburZ4kJQWrD6RQ1-2300" value="SCADA&lt;br&gt;server" style="text;html=1;align=center;verticalAlign=middle;resizable=0;points=[];autosize=1;strokeColor=none;fillColor=none;" vertex="1" parent="1">
          <mxGeometry x="-1202" y="500" width="60" height="30" as="geometry" />
        </mxCell>
        <mxCell id="Qpk1EburZ4kJQWrD6RQ1-2302" value="RTU&lt;br&gt;(Remote Terminal Unit)" style="text;html=1;align=center;verticalAlign=middle;resizable=0;points=[];autosize=1;strokeColor=none;fillColor=none;" vertex="1" parent="1">
          <mxGeometry x="-1282" y="735.75" width="140" height="30" as="geometry" />
        </mxCell>
        <mxCell id="Qpk1EburZ4kJQWrD6RQ1-2303" value="PLC" style="text;html=1;align=center;verticalAlign=middle;resizable=0;points=[];autosize=1;strokeColor=none;fillColor=none;" vertex="1" parent="1">
          <mxGeometry x="-816" y="752" width="40" height="20" as="geometry" />
        </mxCell>
        <mxCell id="Qpk1EburZ4kJQWrD6RQ1-2304" value="PLC&lt;br&gt;(Programmable Logic Controller)" style="text;html=1;align=center;verticalAlign=middle;resizable=0;points=[];autosize=1;strokeColor=none;fillColor=none;" vertex="1" parent="1">
          <mxGeometry x="-1710" y="736.5" width="190" height="30" as="geometry" />
        </mxCell>
        <mxCell id="Qpk1EburZ4kJQWrD6RQ1-2305" value="PLC" style="text;html=1;align=center;verticalAlign=middle;resizable=0;points=[];autosize=1;strokeColor=none;fillColor=none;" vertex="1" parent="1">
          <mxGeometry x="-1445" y="507" width="40" height="20" as="geometry" />
        </mxCell>
        <mxCell id="Qpk1EburZ4kJQWrD6RQ1-2306" value="Data Base" style="text;html=1;align=center;verticalAlign=middle;resizable=0;points=[];autosize=1;strokeColor=none;fillColor=none;" vertex="1" parent="1">
          <mxGeometry x="-1000" y="376" width="70" height="20" as="geometry" />
        </mxCell>
        <mxCell id="Qpk1EburZ4kJQWrD6RQ1-2307" value="Data Base&lt;br&gt;(Reserve)" style="text;html=1;align=center;verticalAlign=middle;resizable=0;points=[];autosize=1;strokeColor=none;fillColor=none;" vertex="1" parent="1">
          <mxGeometry x="-1080" y="371" width="70" height="30" as="geometry" />
        </mxCell>
        <mxCell id="Qpk1EburZ4kJQWrD6RQ1-2308" value="Operator AWS" style="text;html=1;align=center;verticalAlign=middle;resizable=0;points=[];autosize=1;strokeColor=none;fillColor=none;" vertex="1" parent="1">
          <mxGeometry x="-1257" y="267.5" width="90" height="20" as="geometry" />
        </mxCell>
        <mxCell id="Qpk1EburZ4kJQWrD6RQ1-2311" value="" style="endArrow=classic;startArrow=classic;html=1;rounded=0;entryX=0.5;entryY=0.98;entryDx=0;entryDy=0;entryPerimeter=0;" edge="1" parent="1" target="Qpk1EburZ4kJQWrD6RQ1-2266">
          <mxGeometry width="50" height="50" relative="1" as="geometry">
            <mxPoint x="-1130" y="240" as="sourcePoint" />
            <mxPoint x="-1130.63" y="111" as="targetPoint" />
          </mxGeometry>
        </mxCell>
        <mxCell id="Qpk1EburZ4kJQWrD6RQ1-2312" value="" style="shape=mxgraph.cisco.computers_and_peripherals.workstation;html=1;dashed=0;fillColor=#10739E;strokeColor=#ffffff;strokeWidth=2;verticalLabelPosition=bottom;verticalAlign=top;fontFamily=Helvetica;fontSize=36;fontColor=#FFB366" vertex="1" parent="1">
          <mxGeometry x="-1390" y="87" width="83" height="62" as="geometry" />
        </mxCell>
        <mxCell id="Qpk1EburZ4kJQWrD6RQ1-2313" value="" style="endArrow=classic;startArrow=classic;html=1;rounded=0;entryX=0.755;entryY=0.5;entryDx=0;entryDy=0;entryPerimeter=0;exitX=0;exitY=0.5;exitDx=0;exitDy=0;exitPerimeter=0;" edge="1" parent="1" source="Qpk1EburZ4kJQWrD6RQ1-2266" target="Qpk1EburZ4kJQWrD6RQ1-2312">
          <mxGeometry width="50" height="50" relative="1" as="geometry">
            <mxPoint x="-1285" y="301" as="sourcePoint" />
            <mxPoint x="-1285" y="164" as="targetPoint" />
          </mxGeometry>
        </mxCell>
        <mxCell id="Qpk1EburZ4kJQWrD6RQ1-2314" value="AWS *15" style="text;html=1;align=center;verticalAlign=middle;resizable=0;points=[];autosize=1;strokeColor=none;fillColor=none;" vertex="1" parent="1">
          <mxGeometry x="-1390" y="159" width="60" height="20" as="geometry" />
        </mxCell>
        <mxCell id="Qpk1EburZ4kJQWrD6RQ1-2316" value="" style="endArrow=classic;startArrow=classic;html=1;rounded=0;entryX=0.98;entryY=0.5;entryDx=0;entryDy=0;entryPerimeter=0;exitX=0;exitY=0.5;exitDx=0;exitDy=0;exitPerimeter=0;" edge="1" parent="1" source="Qpk1EburZ4kJQWrD6RQ1-2267" target="Qpk1EburZ4kJQWrD6RQ1-2266">
          <mxGeometry width="50" height="50" relative="1" as="geometry">
            <mxPoint x="-1095.5" y="475" as="sourcePoint" />
            <mxPoint x="-1095.5" y="338" as="targetPoint" />
          </mxGeometry>
        </mxCell>
        <mxCell id="Qpk1EburZ4kJQWrD6RQ1-2319" value="Internet" style="shape=mxgraph.cisco.storage.cloud;html=1;dashed=0;strokeColor=#23445D;fillColor=#ffffff;strokeWidth=2;fontFamily=Helvetica;fontSize=24;fontColor=#23445D;align=center;fontStyle=1" vertex="1" parent="1">
          <mxGeometry x="-940" y="37" width="186" height="106" as="geometry" />
        </mxCell>
        <mxCell id="Qpk1EburZ4kJQWrD6RQ1-2267" value="" style="shape=mxgraph.cisco.routers.router;html=1;dashed=0;fillColor=#10739E;strokeColor=#ffffff;strokeWidth=2;verticalLabelPosition=bottom;verticalAlign=top;fontFamily=Helvetica;fontSize=36;fontColor=#FFB366" vertex="1" parent="1">
          <mxGeometry x="-980" y="93" width="78" height="53" as="geometry" />
        </mxCell>
        <mxCell id="Qpk1EburZ4kJQWrD6RQ1-2320" value="" style="sketch=0;points=[[0.015,0.015,0],[0.985,0.015,0],[0.985,0.985,0],[0.015,0.985,0],[0.25,0,0],[0.5,0,0],[0.75,0,0],[1,0.25,0],[1,0.5,0],[1,0.75,0],[0.75,1,0],[0.5,1,0],[0.25,1,0],[0,0.75,0],[0,0.5,0],[0,0.25,0]];verticalLabelPosition=bottom;html=1;verticalAlign=top;aspect=fixed;align=center;pointerEvents=1;shape=mxgraph.cisco19.rect;prIcon=collab3;fillColor=#FAFAFA;strokeColor=#005073;" vertex="1" parent="1">
          <mxGeometry x="-1370" y="869" width="64" height="50" as="geometry" />
        </mxCell>
        <mxCell id="Qpk1EburZ4kJQWrD6RQ1-2321" value="" style="endArrow=classic;startArrow=classic;html=1;rounded=0;entryX=0.5;entryY=0;entryDx=0;entryDy=0;entryPerimeter=0;exitX=1;exitY=0.5;exitDx=0;exitDy=0;exitPerimeter=0;" edge="1" parent="1" source="Qpk1EburZ4kJQWrD6RQ1-2269" target="Qpk1EburZ4kJQWrD6RQ1-2320">
          <mxGeometry width="50" height="50" relative="1" as="geometry">
            <mxPoint x="-1085.5" y="485" as="sourcePoint" />
            <mxPoint x="-1085.5" y="348" as="targetPoint" />
            <Array as="points">
              <mxPoint x="-1340" y="750" />
            </Array>
          </mxGeometry>
        </mxCell>
        <mxCell id="Qpk1EburZ4kJQWrD6RQ1-2322" value="" style="sketch=0;points=[[0.015,0.015,0],[0.985,0.015,0],[0.985,0.985,0],[0.015,0.985,0],[0.25,0,0],[0.5,0,0],[0.75,0,0],[1,0.25,0],[1,0.5,0],[1,0.75,0],[0.75,1,0],[0.5,1,0],[0.25,1,0],[0,0.75,0],[0,0.5,0],[0,0.25,0]];verticalLabelPosition=bottom;html=1;verticalAlign=top;aspect=fixed;align=center;pointerEvents=1;shape=mxgraph.cisco19.rect;prIcon=collab3;fillColor=#FAFAFA;strokeColor=#005073;" vertex="1" parent="1">
          <mxGeometry x="-994" y="865" width="64" height="50" as="geometry" />
        </mxCell>
        <mxCell id="Qpk1EburZ4kJQWrD6RQ1-2323" value="" style="endArrow=classic;startArrow=classic;html=1;rounded=0;entryX=0.5;entryY=0;entryDx=0;entryDy=0;entryPerimeter=0;exitX=1;exitY=0.5;exitDx=0;exitDy=0;exitPerimeter=0;" edge="1" parent="1" target="Qpk1EburZ4kJQWrD6RQ1-2322" source="Qpk1EburZ4kJQWrD6RQ1-2270">
          <mxGeometry width="50" height="50" relative="1" as="geometry">
            <mxPoint x="-1090" y="748" as="sourcePoint" />
            <mxPoint x="-710.5" y="346" as="targetPoint" />
            <Array as="points">
              <mxPoint x="-963" y="752" />
            </Array>
          </mxGeometry>
        </mxCell>
        <mxCell id="Qpk1EburZ4kJQWrD6RQ1-2324" value="" style="sketch=0;points=[[0.015,0.015,0],[0.985,0.015,0],[0.985,0.985,0],[0.015,0.985,0],[0.25,0,0],[0.5,0,0],[0.75,0,0],[1,0.25,0],[1,0.5,0],[1,0.75,0],[0.75,1,0],[0.5,1,0],[0.25,1,0],[0,0.75,0],[0,0.5,0],[0,0.25,0]];verticalLabelPosition=bottom;html=1;verticalAlign=top;aspect=fixed;align=center;pointerEvents=1;shape=mxgraph.cisco19.rect;prIcon=collab3;fillColor=#FAFAFA;strokeColor=#005073;" vertex="1" parent="1">
          <mxGeometry x="-620" y="867" width="64" height="50" as="geometry" />
        </mxCell>
        <mxCell id="Qpk1EburZ4kJQWrD6RQ1-2325" value="" style="endArrow=classic;startArrow=classic;html=1;rounded=0;entryX=0.5;entryY=0;entryDx=0;entryDy=0;entryPerimeter=0;exitX=1;exitY=0.5;exitDx=0;exitDy=0;exitPerimeter=0;" edge="1" parent="1" target="Qpk1EburZ4kJQWrD6RQ1-2324" source="Qpk1EburZ4kJQWrD6RQ1-2271">
          <mxGeometry width="50" height="50" relative="1" as="geometry">
            <mxPoint x="-710" y="750.75" as="sourcePoint" />
            <mxPoint x="-335.5" y="348" as="targetPoint" />
            <Array as="points">
              <mxPoint x="-590" y="754" />
            </Array>
          </mxGeometry>
        </mxCell>
        <mxCell id="Qpk1EburZ4kJQWrD6RQ1-2326" value="HMI&lt;br&gt;(Human Machine Interface)" style="text;html=1;align=center;verticalAlign=middle;resizable=0;points=[];autosize=1;strokeColor=none;fillColor=none;" vertex="1" parent="1">
          <mxGeometry x="-1420" y="925" width="160" height="30" as="geometry" />
        </mxCell>
        <mxCell id="Qpk1EburZ4kJQWrD6RQ1-2327" value="HMI&lt;br&gt;(Human Machine Interface)" style="text;html=1;align=center;verticalAlign=middle;resizable=0;points=[];autosize=1;strokeColor=none;fillColor=none;" vertex="1" parent="1">
          <mxGeometry x="-1041" y="922.5" width="160" height="30" as="geometry" />
        </mxCell>
        <mxCell id="Qpk1EburZ4kJQWrD6RQ1-2328" value="HMI&lt;br&gt;(Human Machine Interface)" style="text;html=1;align=center;verticalAlign=middle;resizable=0;points=[];autosize=1;strokeColor=none;fillColor=none;" vertex="1" parent="1">
          <mxGeometry x="-670" y="922.5" width="160" height="30" as="geometry" />
        </mxCell>
        <mxCell id="Qpk1EburZ4kJQWrD6RQ1-2329" value="" style="shape=image;verticalLabelPosition=bottom;verticalAlign=top;imageAspect=0;aspect=fixed;image=data:image/png,iVBORw0KGgoAAAANSUhEUgAAAgAAAAIACAMAAADDpiTIAAAAA3NCSVQICAjb4U/gAAAACXBIWXMAAA9OAAAPTgFM2SjnAAAAGXRFWHRTb2Z0d2FyZQB3d3cuaW5rc2NhcGUub3Jnm+48GgAAAwBQTFRF////AAAAAAAAAAAAAAAAAAAAAAAAAAAAAAAAAAAAAAAAAAAAAAAAAAAAAAAAAAAAAAAAAAAAAAAAAAAAAAAAAAAAAAAAAAAAAAAAAAAAAAAAAAAAAAAAAAAAAAAAAAAAAAAAAAAAAAAAAAAAAAAAAAAAAAAAAAAAAAAAAAAAAAAAAAAAAAAAAAAAAAAAAAAAAAAAAAAAAAAAAAAAAAAAAAAAAAAAAAAAAAAAAAAAAAAAAAAAAAAAAAAAAAAAAAAAAAAAAAAAAAAAAAAAAAAAAAAAAAAAAAAAAAAAAAAAAAAAAAAAAAAAAAAAAAAAAAAAAAAAAAAAAAAAAAAAAAAAAAAAAAAAAAAAAAAAAAAAAAAAAAAAAAAAAAAAAAAAAAAAAAAAAAAAAAAAAAAAAAAAAAAAAAAAAAAAAAAAAAAAAAAAAAAAAAAAAAAAAAAAAAAAAAAAAAAAAAAAAAAAAAAAAAAAAAAAAAAAAAAAAAAAAAAAAAAAAAAAAAAAAAAAAAAAAAAAAAAAAAAAAAAAAAAAAAAAAAAAAAAAAAAAAAAAAAAAAAAAAAAAAAAAAAAAAAAAAAAAAAAAAAAAAAAAAAAAAAAAAAAAAAAAAAAAAAAAAAAAAAAAAAAAAAAAAAAAAAAAAAAAAAAAAAAAAAAAAAAAAAAAAAAAAAAAAAAAAAAAAAAAAAAAAAAAAAAAAAAAAAAAAAAAAAAAAAAAAAAAAAAAAAAAAAAAAAAAAAAAAAAAAAAAAAAAAAAAAAAAAAAAAAAAAAAAAAAAAAAAAAAAAAAAAAAAAAAAAAAAAAAAAAAAAAAAAAAAAAAAAAAAAAAAAAAAAAAAAAAAAAAAAAAAAAAAAAAAAAAAAAAAAAAAAAAAAAAAAAAAAAAAAAAAAAAAAAAAAAAAAAAAAAAAAAAAAAAAAAAAAAAAAAAAAAAAAAAAAAAAAAAAAAAAAAAAAAAAAAAAAAAAAAAAAAAAAAAAAAAAAAAAAAAAAAAAAAAAAAAAAAAAAAAAAAAAAAAAAAAAAAAACyO34QAAAP90Uk5TAAECAwQFBgcICQoLDA0ODxAREhMUFRYXGBkaGxwdHh8gISIjJCUmJygpKissLS4vMDEyMzQ1Njc4OTo7PD0+P0BBQkNERUZHSElKS0xNTk9QUVJTVFVWV1hZWltcXV5fYGFiY2RlZmdoaWprbG1ub3BxcnN0dXZ3eHl6e3x9fn+AgYKDhIWGh4iJiouMjY6PkJGSk5SVlpeYmZqbnJ2en6ChoqOkpaanqKmqq6ytrq+wsbKztLW2t7i5uru8vb6/wMHCw8TFxsfIycrLzM3Oz9DR0tPU1dbX2Nna29zd3t/g4eLj5OXm5+jp6uvs7e7v8PHy8/T19vf4+fr7/P3+6wjZNQAAIBlJREFUeNrtnXlgTdf2x08mQYQYQmNqSpE8DX1CSxOtGNogpYOh9IeYp6d4tMIz56dmRfHQlmo9Qw3PzI9WY6yam/JoRQ0pJYOhIiLT/Xnvockezt7n3nvOPff4fv+9+6597lqfe/Y+a6+9j6LYq+L9liTm2sykS+tGPqtABqlxks2EynzPA6ExRHH5NnNqpw+CY4Ai8mxm1XhER38VP2fa+NtywhEf3dXFZmKtQHx010dmBuAc4qO79pgZgPwABEhv/WRmAGwhCJDeWmPm+N/1QoD01igzA3AA8dFdkWYG4H8RH/211LzxT/JDePRXqctmjX9eJKJjhGofN2f80zsgNsbIZ1yWCeO/KQiRMUy+LwyYt5CrE2Rsliy0R1cJK2n8pn8f2aIMomIaTSEBsC8/l0BYOQnPAgAIAEAAAAIAEACAAAAEACAAAAEACABAAAACABAAgAAABAAgAAABAAgAQAAAAgAQAIAAAAQAIAAAAQBIT31IAlDZLjNHCSvH4Vk30TASgORDduhH0soueNZN1Emf7b/L4Fk3URN9AJgMz7qJyulzmnAneNZdtFeP+GeXgmPddhboDGEO6D6qcl8HALrBr+6jmc6P/2kcAupGKnPT6QC0hVfdSbHOjv8G+NS95OTXCiSWgEvdS15bnRn/a8HwqLvJ5xPnxf/E0/CnG2pwjpPiv7o4nOmWqrneKcN/S3jSbfXScgefB7N3dfWEG91Z3s3GL958hDxc+s5JSuTJwLZTu5ZN6YT8vzV0lghuAt0kjgQAE38AAAEACABAAAACABAAgAAABAAgAAABAAgAQAAAAgAQAIAAAAQAIAAAuQsAZ2MprQEATxAAMgIAAAACABAAgAAABAAgAAABAAgAQAAAAgAQAIAAAAQAIAAAAQDIvQA43pDSfADwBAGQQDdBSRgAAAAAAAAAAAAAAAAAAAAAAABuAwAQAIAAAAQAIAAAAQAIAEAAAAIAEACA3EmnieB+RzcZRwJQGW6zjvaSr42jXwa4lgSgGNxmHa0jo1ubanKBaJEBr1lIC0kAYskWZcgWF+E1C2k8Gd595BjwAdniELxmIbWmqv4HF25Qm3y5rO1jeM1CKpVHxvfuswU/9z5KEdIOXrOSjlMBPh/5x6dB2+mNQeXhNCtpBh3hvJlFH374Tjr96Sn4zFIKzWfs/ru67m8tXxr4WSJrZ+BQ+Mxa2qltZ+jdALjMWorRBsBieMxi8kzUEv/sUHjMaorI1wDAZPjLevpUPv7nsRBkQZVNkY1//mvwliUHgSxJAMbAV9ZUJ7n4L4enrKq/ycR/ny8cZVm9lyeM//ricJOF1SZDEP/pnnCSpfVn1YTQja7wkNXlPeIuN/4rK8A/T4CeWX6fGf6D0fDNE6IKY6+Q0c/8rB788gQpFOv/T7ZCSACGwCcAAAIAEACAAAAEACAAAAEACABAAAACABAAgAAABAAgAAABAAgAQAAAAgAQAIAAAAQAIAAAAQAIAEAAAAIAEACAAAAEACAAAAEACABAAAACABAAgAAABAAglyp4PnVKZDN45YlR842sQ8NP9cWLYp4IPbOdd1TwL3hVjPXlPSJT5bTwFXhjsMVVZo/66wJ+awAfWVnVfxK9MCTzLXjJuqon8ea4/MHwk1VV9Teptwa2h6esqZI/yr02LhPzAEvKY7vsm0N/C4K3LKju8u8OXgNvWU9lUzW8Pbw1/GU5aXh5uM12EW+PtJpq5GsBwPZXeMximqMp/rYkD7jMUvK/zXzkP7d68RH2S+VbwmeW0kBGjC+0Lfnvj3zqsZ4PN8NnltI2OsSL/R9/2vcO9ek9vETeSvKiR4AeBT+v9Tv1eWN4zUIKp+K7rnCDHlSDv8FrFtIQMrypZOXHZrLFDnjNQppNhvcDskUtssVZeM1C+gcZ3pfJFh63iBbp8JqFtJOIbl4JqsluMkfgBbdZRyeI6J6mm8wgbxIV4Dbr6BCZA6KbUFtFSsNt1tE/yeiWEzJyH16zkBaQAESTLbzI7QKX4TULaTQJwBSyRUOyxWF4zULqRaX6Qwo38D6G1SDryqsvvR/gu8JPeeOoBjnzysJz1lDTH1gL/pMLlny0yGG0uDHEB85zfz27gVP0k/DMoyZFP+LUi51Fcai7q9SM+9yyrzsjGhRVFI8anc/wS8P+rzZ86M6Dfz/BZsCcH/beVm+Ri6mA+6pZos0JwlTATVVjo81JwlTAHQf/mdk25wlTAbcb/FNtThWmAm6l5j/anK6bmAq4i2pusukiTAXcQgGzsm16CVMB8w/+/VNtOip3PqYCplaLUzadhamAmQf/zYLo5czbLwpwyoTrghY/xcDT5hz8PxIN/ttDFe8p6ucE7A5SSk67j6mAGw7+A9IEYTvz3x3f0SqThNyxnv9uUn09pgLupldFg3/6e94PmwZOz+AcELj++Ufmok5iKuBOqrVFNPjPLVOgeeDUO4zwr61boIlnb0wF3EalZ4sG/21EBaBSptuqGwUbZO8eXpNoUnKqaCqwE1MBM8h7oGjw/1c0c9IQOfLjr/acvXBo4+L4t0qyWmAq4A567bRo8P+Lt93GxVOBoZgKuFQhW0WD/xyHdnhhKmBuDRUN/ltDHO1CPBVY7Y9AuEhLBaE57ZR3AFUTTQXO4j0zrtFg9bikDfR2UkdNBFOBrz0RDBeoouq9OXu2E7d3i6YCPRENFyheLSRbajm3s5JTs1R6O4ZouEAqZV+nXnV+d6pTgSoIh/HK4A7+A/Q53qfJCS4ATREOw1WSN/jPCtCrS89e1ziddkU8DFcAOxSba+pKHWcqEIt4mAOAH1vo3W21dQDAtACk9jfibD/WVAAAmACA7JkBxvTMmAoAABMAEG9c3xEAwIQAjDeu74YAAAAAAAAAAAAAAAAAAAAAAAAAAAEACABAAAACABAAgAAABAAgAAABAAgAQAAAAgAQAIAAAKQvAGGdP1yokz7qE+ELAMwNwAt79T0r+nIXDwBgYgDG5Ot9Wrjtm6IAwLQA9LMZoI1eAMCkAITmGQGA7X0AYEoAEop+akj8bcne4wGACQGw7c4yBgDbduwONiUALhQAMF7+ZgKgC+JhvH4zEQAvIhzGa6t54p9TDOEwXhPMA8APiIYL9FS6aQBoh2i4Qv9jlvivRCxco6/MEf8LeHGMi1RkoxnifzEYkXCVfDYi/k84ARvUYtOQ/8UQsu0QlV6uIf7uSYABACD+Lifgn64EAPE3NQG6A4D4m4KA9a4CAPE3OQE6A4D4m50AfQFA/E1EwDrjAUD8zSTvdUYDgPibjIC1xgKA+LsDAfoBgPi7BQG6AYD4m5KADUYB8Cvib0rFGgXABvgaAEAAAAIAEACA3BKAp7Ts7pMHwDOkoU4K8RT9fJ8wvfquZkEAlCtE2zDHAfAds/eOfrWHd/aO8eVfYsD073XcG52+s7+H1QDYVLhpppfDAISf1rv+9HQ47wpb/qp3398GWwyAQYWbblUcBSA6x4A9iNHsC/yLAdXPv4daCwCv7wvdX59xFIDSV4yoQb9SmnV9tTKN6Puwt6UAUELuFWjZV3EUgC+M2YXwBWvmeciYvkdZCwDl5V8eTwDeUxwFwDfbmCBkMyaCoQZtgfnJYgAoJRb+Z+Kcv6em4jAADYzaiNSA7ruLQV3nl7IYAA8enev1GR4l/lkSAPQ3CoD+dN9zjOo7ynIASEoCgMlGBWEy3fc/jeq7GwDgAjDFqCBMofveYFTfsQAAAAAAAAAAAAAAAAAAAAAAAAAAAHgADIjlaibZdia/7QA7ALjNNxe7grQ3kt82HgA4AEAA31w02Taa3zbADgCuqfyUIaS9EH7bhgAAAAAAAAAAAAAAAAAAAAAAAAAAAAAAAAAAAAAAAAAAAAAAAAAAAAAAAAAAAAAAAAAAAAAAQA6A5mTb5sYBQJ0k8CwAMByAymTbysYB0JRoq3YyCgDQCQAlpXDTFMU4AErlF257UAEAxgOwvXDT7QYCoJwt3HY2AHABAI1yC7bMbWQkAB0KNb1VBQC4AIDCracoRgKgrJIOKQDQDQDfbX803OZrLABlD//Rcr4CAFwCgKL0uv1wE0cv9XbOB0DxHv3wPKOrMQoAcBUASqXei44dW9S7kmI4AIpSa9CyUwfndi2jAADXASApXQCQFAAAAAAAAAAAAAAAAAAAAAAAAAAAAAAAAACA+wDwZrBzlAoA3BMAvQQAAAAAAAAAAAAAAAAAAAAAAAAAAAAAAACX63WjAPgMAJhSQUYB0B8AmFNXDAKgAQAwpxYbE//kIgDAnDLmDd621xQAYFK1NiL+nygAwLR6O1Xv8OdO8QUAJlb51Zl6hj/vyIvsfgGAaeRdp0ecThrU2I/XKwB4wgUAAAAAAAAAAAAAAAAAAAAAAAAAAAAAAAAAAAAAAAAAAAAAAAAAAAAAAAAAAAAAAAAAAAAAAAAAAHCSykX2jJs0d+maHd8muE6XSGftd47dfaTdS3SbNKLJfSf9pmNk32d2rF06d1Jcz8hyJgm9R50hSw6m2yDDlX5wyZA6Hq6NfvU+q1MQCVcqZXWf6q6KftVRZxAAM+jMqKrGR79kj2/z4XqzKP/bHiWN/fN/nAmvm0uZHxt3G6i5JBsON5+yl9Q0JPy1VuXB2eZU3qpauoe/2KT7cLR5dX9SMX3jH3MBTja3LsToGP7KG+Bg82tDZb3i3zoN3nUHpbXWJfze0/Dg7y5pgWneOjz6H4Rj3UcHnZ4UaIz1HrdSemPnxv+Ne/Cpe+neG86Mf+9cuV5zr56FdNZV2Vj0dl78R4s6S9myeELf18MreqEsSX95VQx/ve+ExVuEC/GjdSu1KqykGZGeCIvx8oyckaQemSnO6eivan0cHf0cQuE6PTf6qFp0/uqMPt7lP/7fGFkFMXC1qoy8wU8IvOu4/de4S7/3ppWG+82g0tO4z2jZrzlqPDyDt/S4FP9+89wFlvKW6DPCHbMcwFv924Kh31yTgS281cEAh+yuZ1s9/wpcbja9cp4dq/WOGH2PbXN3WfjbfCq7mx2t9+w3WZ9d/bPAG942o7wXsKuE6ttrsBgzz5AzAK42qwbkMDN19paJxTOXmZrCz+ZVU+aibbx9xmpkMWydrg4vm1nVTzOCllXDLls7GKYulYePza3ylxhh22GPpbdZaYW68LDZVZeVuntbux3fy4zU8lvwr/n1FmPx5rKvZjN9GRyNgXfdQWMYoeur+ZmSkQNeDd+6h1YzMsJaczeM18AfEz1O+lR58c12LwX7Onj5xapFdmhT3+HqolIhTTu1rBvo4BEaHoF1W3ZqGlLKwYvxqli/TYfIao7u2/INfqndmy9W8RF58BgdvVhtPXn+RCcAVDecVB646/qjsSf9YFyInb8wbMzhR6vbeVe39LLzmcMras6Zu4/yYBe/fMvPPjN+b3158VEu9O6ZOVF2Ilm+15arjxbrbhweE2ana0LiHp/Ek39910D1aNDpgJ+0VW111FRdEjTqCNn6zGTtG1XDqBKnvH3Dymg2E/05uYPp3sZuPlqt+HTbRK6yp30erfliygzbl0eV0GlnoNZk6jSWI6OC+O0ZVVwdNXVIrytc5N7Z/SfeZaaMFz6lqcunv2Cuad8cUVSTmUb72IWLHTSNBR4d2OV2+xppupiiI24yaym+eFqTmacWMlO8dyf6c8eKi/QKnpYeq9BPEl14s8WB13nlKBnjS8j/U2Zk8cwkd5e/e9VYyy2POqxhCfuVw1wza+Wzap7dk3lWsmbI39lKjOcV5diuD+TN7brQz/BaCnjiqK+f5ATh6RNqRYmXZetRolT3nR6QvZcMVD26ZKHkOOCzUM1K9kDZ/+0B1R2cUZJmwi+rmTnBuZd4nqSaxmkAgE4oc0a/VwTF6ZnvSPXHXsUqcBOo53jgHmiP1OGK5fYIzMiBVC9Z3Yrkquo7gtOYUjg3tmh6GUc+/uHUl79hN+wvPixokofjgXsAUkcnBO7B03AdsZk6F4RmZEDqKD5GSwIkj0lCK9n92V/9hmopXx44gxo/2DUFE2S2KC0TPrRtkzEj/L8EJklYyWggMtMgQ8JMUqDwnibzm7YJHyyXyZiZwPxqfWoeN0MaAGr82Cn7rMjSSEFvs6Ss5DRTt1Jkn5SZq5XUzVS6KmVmXxF1M81ypMzMErhmpJyH2bfHndQ8Tjb+gRQ7zLtMPcmzAvPbqvbWXXbDs3olwmeSZo6qZuOKHZU085nqxVSX3UzfXdVMW8kjOTKZU6T+VCACJQHoQH2zIqNVhWTZncp31Ebel6RPHTvtr2JmqPS+6VVqP32VtJmhKlb8T8tauf+S2mzkjqyZ5AqMr1ek8OkgCcAi8ovfs1ppODDqFP9BnpGx4E+a+JdcO1feTKymFRDu7uvafDML5c3w82uK5yl5MxtYBr4nWy2SBOCczCgeoeW0Ar7Ph2mwksPPLm/WYOYyN7VY9LIGM5v5edscDWaGOYNGmy1CZgZxTi7+FSjroYxWB7Rc3iUe5wGaTp7h7nF4WdPhGR/wzHygyczLPDPrNZ3lEsC7N17SYuYAw0Io1aqCFABNqIUkRqM3tB1YwltJmqLNDC8Tf0iTlZucTa2lb2oyc4i3GqHtN02RX89R0xsME9SSrlw2nKoFmiqVK1RVGvu2W17j0UOcfNTr2qzYJrHNTNJo5nXZDIyq7rHXvItqPJSRleebal9dEPVczjhwKox1Dbd3T2vfNn5HmryzerOa/rZ5bOvOs/axlhjz2Pew5cxkzcphLXovPs4aj5PYP5yVSco5vrh3i2ErmUmm5ewRlLWoeXffrM6tx27+jWWmtzzUaTvi27aftvs26zPGGnNjrXmH/4pKzDHWnccyHvfnPay78B7DeLJbIteVzZYx6GHuuDQrrH2YC5KMExKSHy1e1PyOYYY5g6/NaPjdoxPYoxkPvTeYS3F9WKg8HHQ8BjHyjNuYrlnCeGYc87BDv3mMBMFYRp2GXFekyF2muYyE5XH6eabAjqE69MeprKynP03KngLpnjevyzkripGn+aOGy+uDLLnkJJ12y/rgj6suxcg0RclBff3NAikiesHiPiu/4ZVKtTteIJ3SlH56Ps4wQj4cn5daxSZvYVcYi8B0sie4UGTp63tFKpd8stD6yJ+zpZw1W5Cn6yk3f6Nnkj0FucbZUlBn/7nQytcJqUzuK/Q/rNBPD6aTRIyF4SvkECpTWVGSSp7KjN3EvblZvszEi3Jpdl3RSMOaS/yLuv+XEvwp8xlFnqXyBbebUtQo8C+psZu4Nz+fLZNWpiak+c1EIw1jLkEltmXeLFSJ/NImus1Ess0OYTKMNWP6mmw0nhzdj8osCmaIihcqUpMExvkmz1FDfEXREnuGzDLgUXKmMJ5s8bXMvJZKg1I79ybSVjaRbSpJAFBLIgP7CdkmRujO3TJ/XWqdvRfZIl7ilpUkvtW8Spt5VfzHTJL4Q1FbqntRdQsyN5LdQmRjyBafSOSkZaq160tMLzcLU0xe5N/yLKOrW2S9BtWirsSvDCHbrBT/LWMlMq/0zWalhD+p/wa9nfIC0eIWwzVnyZuNlzBhu1niYU3mrIgoO8aWZLoJuTz/O92kONnTGvoJj1xy3kKbaSpOr1OvYB5FmxlFtmkoXrhgnJVAHtaUST8rriHNFKfN/E4WINBNku2Yq8kUIlK3ljZ0GzJNvZVuMp80Q6/DP0M2Yew9PCZemOxEmmlBT83JJnNoM3PINvQDRwuySSfxEtwxugm1d+8Zui6BbDKfNrOVXHChm7QRDtUMNSe/1JVukyjOQ5KXl8XIvUtMh8nFIkZtUkvxLYuakUyQqG97TvyHaimuw0mXePhhrE1kif9iZDY+kW7SleypuQQA1O0yTvwr8+gNACnC8V1RMoU/oRp5MV8o4nnCYrEj+kosgdDgLxaP78oXZJtqwr9PJsM15DwhhWpRIk/834gTD2sSGVHG7XKZcGm0qsx6JZVzLC4sTmIsTAWKc2KzJdIJr4vTPFSCM1BiAYYqwykuk5+jVturCpfAl0kMa7UlAKgqnprRq7hzhYuZDCvURNHWmWzxFdliCG3Fg8y95ZCvUPX9mTTDqJCmauF/JosYapILS/cZJe9DSDNfkS0628QTPHqiSC2oz5VYV14jxEiRGJkZ/93B1DIdsWJYPUMmbUpV4KUQf6m3pdKmVN75AJHxnE6ZYWw1eopqNJ3IkVP/yotS6W3ieJZAai/NKpn0dgZRE9uYWnQcLHEfkTne24f80i8S/xbb+UJbsD0SRG74jwba1P8utK/yK0utBhf+u0TkSa0HU2mevAhBhQYru1k5X0A1dVOzsfaa0egnFLrd+NEHwzLuar+QbaT2NF0Tz98Vunhua4Gf6beILntg7dGvRK9qflig4L7qfurjw6wLbk81yyy4lbURXVs1k2VmJtXsUsEKpC50FXx7lhl6X+n+AjfeIh/S6+is/KwfXSqzqIALA7dSH19WxM8S16SWg6l/L2Mj61x6bTSl3eOVLEb5xCZFzlm2Hx7XuPf6nf50lCK3qmzb9KiIwXcao0CDWc7HKCzMm/ZoHhC0ySa3jksnlGy23x+ng+v9YJODWmH0l/R4RbUdY0vmXNpGGeouIgXAIomHnShWTcrXY1sFBjSL28jaztBDkVuCfzCFWz3s5RIV28QzX1QZyjSzndHyxqd9w31rdJ71M6uwhrkly4tVyvTzrM41fMP7fsp6Kwf79L1Q1nUfjG9TscTLw1az6pOYUDP3y+RvjGsWENhq7NesLppKPCDL1YUPFadWFe9UTmkaZy9LNns7ZYg2K7Yz7Cvuo9EMuzyJVYSjaqYP28wZjWbYCzTlsrVZSWWUJ1Gp66FSALSSeUzRUs//QPM4fa3RZobzChxN9fz8/QWa6vn5+wve1fab1nBcM0+bmWEyj9mtpACgsm95jLpVbVXrGbyC9BqafH6ct9Vc0x4K/g6jhZrMxHKseBzXRCPvxJEKGVrMsHZelM8TZyWZPyBVuKStsM4gUdFEbmfztZhpwbPi+aMWGrmHKwVp8fmP3PKqFlp+03yuayZqMcM6wYcqpkiVPCeJOmdwC8vnJ+WvLpVfiVThjryZXfxLbq3BVyqHp8drMNOab2aXvJU7/M06JVPlzTBP8KFeIyR70ie1LJLFOuzphSzpy1PbldpH2sqtmipmVkibSVQ5NdAvUdrMCpWLqXlL2kwfFTMdpK1kvcD4eoksiSUwpp6Vy3h0cXwA0DII5Koe0lf0sKSZlGA1M8EpkmYOqx5eF53r8ACgaRDoIpcfe1YSAKrew/YPZrPpcle3Tn3k8d5t/zS34Pj9q5SV+5HqZiLljiv4NUjdjORD0m71E3w91smZmc789j9s4ooRRfKBOLMic+oldbjPieKC3sqelzHzueiiw6UOLOkhMtNDxkqm8Lylz2XMnBe9fa34CRkz25jT0YqZkukPmUwAqxbz39cncaBGgvhErSoSz01/Fy9jRFwT//97iH98D/E94FqEeEnt7xJPteKjG8sliM2sYv/DqOpUySzAf+7K1J6sXHYOVhmZ53jgHoD0lehhub/MZQtBuh4hYybiuuOBe6D+ohTHV8UlrAhByuOcwRVKTUOuazgxnt5stYHTMua244F7oDGqxyGlNZGzIgDpuORhqQKQpAL3QE1UN3jny759Qx2k27wyT/oEn9ny8Vfq0T3x/jzVVLK5CfKvLGxyhM/4ssrSZmL5J1fdGSd9Wn+xcfzsRHKs9MVUXsa/Px5pIm2mvsowsIaX22Oc4FNPAwCM8x/2c9u+uJd9cadjtPTo0ZFz0OP2OlrMFItjP4PnLKigxUyFBez/3a04Te98qLOd/ZuSOmo6uzyGcxzH3he5X6FLKU5r6VEZTvemctpfm53U0lX+dz21vl/BZyB9SN+9zVEarShlp1ygzKQv1fz2glpL6eOLLkzR/NLkqM10ZcfRgVrfXuDV8ztqjMze2Yb/hbZ0/IZr6tGfXv8+o/YqmIB31xTIo9/f0S9IsUdVBn1T4J93c/nb9r3r4/kJBesuLs9tatfLjr2bzi24yvjDhOftuhi/dstvFrgTfTOoil1mgvrtKPB4krHm3QCVxr70kvQNf239jaMREhz66xvarMuIOfNGxb4aVkKxXyXrRPcYvWDW8M5Navo4YKZCg7b9Ji6aOrh9RLADVpTgiPaDpy6a2K9tgwoOWPGp2aTz8FkLRveIrlPSATMlwl6NHTVvzoguzUIF72ViHDE8TmNnpRn1WO8rkFvofUZVWmmtRj5kTMdbw7fuoNaMh48PNVsJZKyN3/4TvGt+/YmRmskI1G5nFOvxpQz8a3aVSZIuPFVXkbPal68gl4u5uHq2iD2mmrNyDyuLwsdmVtGVrKg1t8/YapatQ0HwsnkVxDw12d6XPldiZsR/DYefzapwZlXMnUr22uvKroboCE+bU5w3lXWz3yKnriXeA842nzzi7aylUpEfZ5vT+gD422wK4Lyn4oyfI1bDOIV2N4bjacBcs//hNzjli2GOGe7J3RnXzRNuN4s8u3F3R/Z01Da/Nj2xFTxvDrVKtHNPhpRUdkwmNILzXa9GCXbsg9Vye1mrUpOYNCMSI4Er7/2RM9RembzWKcHxVX8LUsqnMZgQumbiF/Op+k62b3yd05HfdtGG67XDO0fV8kdIjJJ/rajOw9eKNrNv93NWfz5fym11/jlhxUJIZ61I+FluS/2XPs4jzmOmDXIzzXRuuvb9fLjUnZTv9ALOmHR41X2UHuP8iUeVg/Cru+hgFT2mnt7TMAy4x+1/ml6Fe62S4V3zK1nHFH2JGTlwsLmVM6OErimIsP3wsZm1P0zvJJRH98tws1l1ubsRtVo+Pc/B1WbUuZ4+BqWivd5JhLvNpsR3vBTj5NFi+V343Dy6u7yF4YW6/t0TkBcwx3N/QncXrcQGD1ibBv+7VmlrBwS7cmXao86QDb/kIQ6uUN4vG4bUMcUWjaJh7UZ/ueNA4oXULIRFb2WlXUg8sOPL0e3CnFKI9f+XjKFca7a2BQAAAABJRU5ErkJggg==" vertex="1" parent="1">
          <mxGeometry x="-1570" y="943" width="170" height="170" as="geometry" />
        </mxCell>
        <mxCell id="Qpk1EburZ4kJQWrD6RQ1-2331" value="" style="shape=image;verticalLabelPosition=bottom;verticalAlign=top;imageAspect=0;aspect=fixed;image=data:image/png,iVBORw0KGgoAAAANSUhEUgAAAMgAAADICAYAAACtWK6eAAAABHNCSVQICAgIfAhkiAAAAAlwSFlzAAALEwAACxMBAJqcGAAABipJREFUeJzt3U2oVGUcx/Hv9aZRFoJFKhYZtFDpTdBwIW1qYVmLCikiehMJWoSLFhYV9IItyiRBWkhCZHVbpG4ieqGEsjcstUUvJmQpQaRopZWm3hZnysvt+szMuc+Z5znnfj9wYLhz7n/+V+c38zxnzjwHJEmSJEmSJEmSJEmSJEmSJEmSJEmSJEmSJEmSJEmSJEmSJEmSJEmSJEmSpIbrS92AVKGlwJTW7T3Aiwl7kbKzHRhsbR+WKXBa1HY0WnOAD1I3AVwPbE7dRA4MSF76gYmpm8DnxX/GpW5AypmvFGqyd4FdrdvflClgQNRka4EzWrcPlylgQNRkrwGXt25vARZ0W8A5iBRgQKQAAyIFOAdRkx0Fjgy53TUDoia7crQFHGKpyd4C9ra2DWUK+A6iJpsCTG/dPq9MAd9BpAADIgUYECnAOYia7F5gGfAXsKZMAQOiJvsU+AE4BGwtU8AhlhTgO4hGYxz5v8j2UfQ4/Ll+LEEvGqW5nFxkIOV2TYf9DmTQa9mtI7mnX0qqmyHWQ8CEqhqpuY+At1M3ofi6DUgOK27kaCUGpJEcYkkBHsVSSvuA4z16rCntd/k/A6KU5gG7e/RYHR+5GsohlhTgO4hyMhm4lpNrWXVrkOKUkh2xGjIgysUFwGfA1Ai1lgDrItRxiKVsLCVOOAAejVTHgCgbkyPWOjdWIQMiBVQ9B/mKYlXtPyt+nDL6KL7IPw+YlLgXZaqqgLwCPAbsrKh+TOOBW4CngPMT96LMxA7IMeAe4KXIdav0N7AeeAPYBFyVtp2ovgDeabPP3ZRcEmcsiB2Q+6lXOIY6ACyi+Jrm7MS9xPIxsLzNPgsxIKcUc5L+HvB8xHopHKI4hi4BcQOyImKtlD6hCPtwg8AdwH29bUcpxQrIfuD9SLVy8PoIP/uDYvi4tse9KKFYAdkBnIhUKwefp25AeYg1Sd8fqU4ufkndQCQzgbva7BPzE+zGiRWQJr17QHP+nqtbWx38HrHWr7EKeaqJcrGOeE/slZHqeLp7w70MPNlmn40UQ7HUvgMuA26m/OIgJzj1UchSDEizHaQ4Fy7kSJv7e+lHYFXqJoZyiCUFGBApwIBIAQZECnCS3mw3AVe02efiXjRSVwak2aa1NpXkEEsKMCBSgEOsvBwmjzOJf0vdQC4MSF6+prgMmzJhQOpnOeEQHaBYpVARGJD6WUCxuMSp/NyrRsYCJ+lSgAGRAgyIFOAcpH5WU6wACcXlAp4AXqD4ohAUq68oEgNSP0MvNz2TIiCbKZZPVWSxhlj9kerkwhcOAfEC0rQT4qanbkB5iBWQOcDpkWrlYH7gvr6edaHkYg0lzgRuBAYi1UvtthF+NhF4mvIrbqiGYo61HwE2AEcj1kxhMcXyMyN5oJeNKL2Yn4PMBp6JWC+FGcCa1E10YR/Flby+TN2IimtnDHawraKeR4EuBb6ns79x+Fb3F4ayBij37/XvNqOHvQ5/7I5U8Un6MmAbcCtwVgX1Y5sFPAtspbf/YYJdFJft68VWSlWv9JcArwLHKVbLy/HT3XEUlx47J3UjY1j2n59VPRTqBy6q+DFUX2vp/NuL0xj56GKl6jhXUHOsAHZ3uO98DEgjbaM576JLGPnydI1lQKp3NjApdRORjE/dQK/5fRApwIBIAQZECjAgUoCTdKV0A51fcjvJKvQGpHrXARNSNxHJ3sj1VkeuF103Abm9y/3Hkm8D9+3sWReKrpsn/Kb2u0jN0k1AFlbWhepqauoGqtbN96s7PodeqoGOnvse5pUCDIgUYECkAAMiBRgQKcCASAEGRAowIFKAAZECDIgUYECkAAMiBRgQKcCASAEGRAowIFKAAZECDIgUYECkAAMiBRgQKcCASAEGRAroZuG45yrrQpJUP92srDjUncDimI1IFRsA1nf7S2VXa58FLCr5u1IK28v8kpN0KcCASAEGRAowIFKAAZECvOZg4XFgT+omMnMh8HDqJlIzIIWNlDwM2GBzMSAOsaQQAyIFGBApoOwc5E3gYMxGEvspdQMZ2gs8mLqJiLakbkCSJEmSJEmSJEmSJEmSJEmSJEmSJEmSJEmSJEmSJEmSJEmSJEmSJEmSJEnK0j9qcC3+XqvM5QAAAABJRU5ErkJggg==" vertex="1" parent="1">
          <mxGeometry x="-1210.5" y="950" width="199" height="199" as="geometry" />
        </mxCell>
        <mxCell id="Qpk1EburZ4kJQWrD6RQ1-2333" value="" style="shape=image;verticalLabelPosition=bottom;verticalAlign=top;imageAspect=0;aspect=fixed;image=data:image/png,iVBORw0KGgoAAAANSUhEUgAAAgAAAAIACAYAAAD0eNT6AAAABHNCSVQICAgIfAhkiAAAAAlwSFlzAAAOxAAADsQBlSsOGwAAABl0RVh0U29mdHdhcmUAd3d3Lmlua3NjYXBlLm9yZ5vuPBoAACAASURBVHic7d13tGZ1eejx75lGVwEbAlEEZOxl0NijxhITdQZGQF3qNd4kagqaK2iK5prkWijGaDC5McbEhlhiwJpYr0k0LgFrhAEGECkSpc8gMOCc+8c+Z3k4nPKe931+Ze/f97PWs1AW6/c+v2f/9t7Ped9dQC1aBxwDnApsAbYD05XH9plcTwWOnpmDJEka0WbgQsqf0CeNrcCRwbWRJGlwVgMnU/7EHR0nAasC6yRJ0qAM8eQ/GycE1kmSpMHYTPmTdOrYFFYtSZIGYB3d7+WlT9Cp4yK8MFCSRuZvp8N3BHBw6SQyOAjYWDoJSeoLG4Dha+mrcRsASRqRDcDwbSidQEaHl05AkvpiqnQCSm4bsGfpJDLZDuxVOglJ6gMbgOGbLp1AZq5pSRqBPwFIktQgGwBJkhpkAyBJUoNsACRJapANgCRJDbIBkCSpQTYAkiQ1yAZAkqQG2QBIktSgNaUTUO9EP2mvtScVSlIV/AZAkqQG2QBIktQgGwBJkhpkAyBJUoNsACRJapANgCRJDbIBkCSpQTYAkiQ1yAZAkqQG2QBIktQgGwBJkhrU1wZgHXAMcCqwBdhO90z5mmP7TK6nAkfPzEGSJI1oM3Ah5U/ok8ZW4Mjg2iwkOu/W8pMkFbYaOJnyJ+7oOIm038TUfoKtPT9JUmFDPPnPxgmBdZqv9hNs7flJkgraTPmTdOrYFFat26v9BFt7fpI0SFOlExjBOuAc4ODSiSR2MbAe2BE8bvRJMXrN1J6fJA1SH+4COILhn/wBDgI2lk5CktSGPjQAqb4ar5ENgCQpiz40ABtKJ5DR4aUTkCS1oQ8NwH6lE8ho/9IJSJLa0IcLplq7sru1i+xqz0+SBqkP3wBIkqRgNgCSJDXIBkCSpAbZAEiS1CAbAEmSGmQDIElSg2wAJElqkA2AJEkNsgGQJKlBa0onUEDtT7KTJCk5vwGQJKlBNgCSJDXIBkCSpAbZAEiS1CAbAEmSGmQDIElSg2wAJElqkA2AJEkNsgGQJKlBNgCSJDXIBkCSpAbZAEiS1CAbAEmSGmQDIElSg2wAJElqkA2AJEkNsgGQJKlBNgCSJDXIBkCSpAbZAEiS1CAbAEmSGmQDIElSg2wAJElqkA2AJEkNsgGQJKlBNgCSJDXIBkCSpAbZAEiS1CAbAEmSGmQDIElSg2wAJElqkA2AJEkNsgGQJKlBNgCSJDXIBkCSpAbZAEiS1CAbAEmSGmQDIElSg2wAJElq0NQi/34dcASwEXgEcACwR66kJEnS2G4ELgO+CZw+Ezvm/0cLNQCbgROB+6bMTpIkZXEh8Brg43P/5ep5//sk4C+BvfPlJUmSEtoHOAbYE/giMA23bwBOAl6dPy9JkpTBY4HdgC/Az38C2Ax8rFRGkiQpmyOA06foLvg7Bzi4bD6SJCmDi4H1q+g6AU/+kiS14SBg4ypgU+lMJElSVhtXARtKZyFJkrI6fArYRndrgCRJasP2KWbuB5QkSe3wXQCSJDXIBkCSpAbZAEiS1CAbAEmSGmQDIElSg2wAJElqkA2AJEkNsgGQJKlBNgCSJDVoTYIxpxKMKUk1iH5yqsdLrUTo+vMbAEmSGmQDIElSg2wAJElqkA2AJEkNsgGQJKlBNgCSJDXIBkCSpAbZAEiS1CAbAEmSGmQDIElSg2wAJElqkA2AJEkNsgGQJKlBNgCSJDXIBkCSpAbZAEiS1CAbAEmSGmQDIElSg2wAJElq0JrSCYxpHXAEsBF4BHAAsEfRjKS23AhcBnwTOH0mdhTNSItZB2yaib4cL2fX19nAGZRdXwvVD+rJbyLTwZHaZuDCBHkbhjF+bAWOZPii65bakQzjeLmV7o++3EatX678wtdfXxb0auDkBPkahhEXJzHsnxaj65XKKuDEBPmWjreQZ32NW7/U+YWvv74saE/+htGPOIHhiq5VKiclyLWWeHNgnRYzSf1S5he+/vqwoDcnyNMwjHSxiWGKrlMKRybIs7ZIub4i6pcqv9A6ThG/CKeCx1sHnAMcHDyupHQuBtbT0wujluDxsg4XAfcnfn1F1S9VfqHrrw+/1R3B8BezNDQH0d2lo7w20cbx8r7AcxKMG1W/VPmF6kMDMNSvEqWhswHIr8SV8qWkODdE1q/6c1cfGoANpROQNJbDSyfQoJaOlynWV2T9ql//fbgGYBuwZ/CYktLbDuxVOolgHi/rkWJ9RdYvRX7NXQPQymKWhsZ9VyntLJ3AMmrPrxcNgCRpNFeUTiCjFHONHLP6bWEDIEnDcVbpBDI6M8GYkfVLkV8oGwBJGo4zSieQ0ScSjBlZvxT5herDRYCpnpYlKb3o40FptR8v1wLfBw4NHrc25wMPAm4NHjeqfqnya+4iQEnSaG4FXls6icSmgeOJP7lCTP1S5hfKBkCShuWf6d5kN1RvIe3X65PWL3V+oWp/uUXpl04YhjF+DE1f6rOK7kRUevtHxk7gTeR7HfBK65cjv/D1V/uCLr3oDMMYP4amb/XZBFyQIO/ccT5lnq0/av1y5RdaVy8ClJSSFwEuLUd91tK9l2ET3aNuD6D+hzRtBy4Fzqa7Mv8Myv2mvlD9oEx+oeuvxQZgaAckKZL729Ksj0oKXX9eBChJUoNsACRJapANgCRJDbIBkCSpQTYAkiQ1yAZAkqQG2QBIktQgGwBJkhpkAyBJUoNsACRJapANgCRJDbIBkCSpQTYAkiQ1yAZAkqQG2QBIktQgGwBJkhpkAyBJUoNsACRJapANgCRJDbIBGI61wPOBDwEXATcDN87879OAo4F1xbJr01rgedxxm1yM20T5rKNba6cCW4DtwHTlsX0m1w9Sfj9ZqH415TeR6A3XWn41OAK4hOXnfglwZKEcW7OJfm4T97el9a0+RwIXJsg7d2ylO87lNmr9cuUXvv5qX9C151fSFPAOVl6Dv8Bvf1Lp+zZxf1taX+qzCjgxQb6l4y3k2U/GrV/q/MLXX+0Luvb8ShrnRDMb/0AdJ5yh6fs2cX9bWl/qc1KCXGuJNwfWaTGT1C9lfuHrr/YFXXt+pRzF5LV4F91frIoRsU3+jrLbxP1taX2oz5EJ8qwtNoVV644i6pcqv/D1V/uCrj2/EnYBfkBMPf4am4AIkdvkbyi3TdzfllZ7fdbR/R4dnWdtcSFpLryLql+q/MLXX+0Luvb8SngesTV5e970Byl6m5T6dsb9bWm11+foBDnWGs8NqtlckfVLkV9oDUv/3qjxbA4e71jg5OAxWxO9TX6T7ndIaSVKXClfSoqv2SPrl/JnijC1d7S151dCqq/4/jznJAYm1TZ5Xc5JBOc+lP1trtrrc36CHGuNLUE1myuyfinyC19/tS/o2vMr4SbS7VSvzTiPIUm5TV6VcR7ub0urvT7bEuRYa2wLqtlckfVLkV9oDf0JoJ9S/jb8ZuAVCccfqpTb5K10T3mU9HM7SyewjNrzK37Pscbzw4RjTwHvBF6a8DOGKOU2WQW8F/i1hJ+hYbiidAIZpZhr5JjVbwsbgH5K8dvSXFPA39KTi1gqcV7i8dcCHwEen/hz1G9nlU4gozMTjBlZvxT5hbIB6KfvZ/iMNXQvrHlqhs8agnMzfMbuwCeBh2X4LPXTGaUTyOgTCcaMrF+K/MLVflFL7fmV8CLyXmjzyDzT6rXfJt82uRI4NNE83N+WVnt91tLGnQDnzcw1WlT9UuUXWke/AeinCzJ+1p7AZ4DDMn5mH92c8bPuAXwO2D/jZ6ofbmX4d/JMA8fTzTVaRP1S5heu9o629vxKeCD5O+5LgANyTK6nfoP82+R7wF2C5+H+trS+1OeEBLnWEm8KrNNiJqlfyvzC11/tC7r2/Eo4iDI73veBfTPMr4/eQJlt8v/o3kMQxf1taX2pzyq6V9OWWJOpYifdyTXX64BXWr8c+YWvv9oXdO35lbA/5XbCrwF7pJ9i73yQctvkA8Q9h8D9bWl9q88mup8MS63NqDgfeE5wbUYxav1y5Re+/mpf0LXnV8JDKbszfp7YvzqH4BLKbpOorx3d35bWx/qspXsxzQfo7lbpw9MCtwHnAO+fyT3FBXWjWqh+pfILX3+1L+ja8yvhaZTfQd+PrxGe9QDKb49p4OUBc3F/W5r1UUmh68+7APqphqu/Xwi8sXQSlXhx6QRmnIJPC5S0ArV3tLXnV8Jfkf+vy8Ui4q/OPtuN7r780tthNm4AHjzBfNzflmZ9VFL4+qt9QdeeXwlnkv/EsljcRtuPDD6W8ttgfvyA7lkB43B/W5r1UUnh66/2BV17frntCdxC/pPKUrEdODzlpCt1J7oXfpSu/0LxNWDXMebk/rY066OSQtef1wD0z0ZgXekk5tmD7mmBh5ROJLM/BfYrncQiHgO8Dy/UlLSE2jva2vPL7RPk/2ty1NhCOw8K+kW6R32Wrvly8foVzsv9bWnWRyWFr7/aF3Tt+eV0d+r7+n9+/DvjffXcJ3vQnxeu7KS7T3lU7m9Lsz4qKXz91b6ga88vpz8j/wlknPgIw33V9BRln/o3Tmxn9DsD3N+WZn1UUvj6q31B155fLnsAV5H/5DFuDPUZAX9C+dqOExcz2s8z7m9Lsz4qKXz91b6ga88vl+PJf9KYJHYCL0pSiXKOpptX6dqOG59h+W9m3N+WZn1UUvj6q31B155fDvcAriP/CWPSuBl4bIJ6lPAo4Kekq9WOhGPPjT9fZp7ub0uzPiopfP3VvqBrzy+Hd5Pn5JAi/hu4d3xJsjqM9E/7ewXdy0ZSb4+dLP3gJve3pVkflRS+/mpf0LXnl9pjgJ+R5kRweoJxF4rvAntFFyaTQ4HLSVuf7wNr6N6w+G+JP2sauB5Yv8h8W9/flmN9VFL4+qt9QdeeX0q7A+eR5iTwebqTzqcTjT8/Pgmsji1PcvcFfkj62jxzzmfelTzvbz+X7qmS87W8v43C+qik8PVX+4KuPb+UTiHdCWDzzGfsDnw94efMjZMCa5PaLwAXkb4mX1zgsw8GfpLhsz+0wGe3vL+NwvqopPD1V/uCrj2/VH6VdFecXwqsnfNZ+9HdJpbis+bHS2PKk9RB5Dn530j3E8NCnkSehz79+rzPbXV/G5X1UUnh66/2BV17finch7T3/B+7wGfeH7gm4WfOxg7gyRNVJ6370zVIqeswDfz2Mrm8JEMO24EHzPnMFve3lbA+Kil8/dW+oGvPL9ruwLdJd8C/ku4d9gv5Jbpb91J99mz8hO4r9to8Gria9POfBj7HaC/qeWOGXL5Ht+5IMPbQWB+VFL7+al/QtecXaQo4jbQH++OWyeH55HnYzZnU9c6Ap9P9NZx63tPAtcABI+Y1RZ67Nf5u5vNa2t/GYX1UUvj6q31B155fpLeQ9iB/MaOddP8gcR6z8fcrK08yR5PvJUvL3Ye/kDsB52TI7QUJxhyaPtZnHXAMcCrdGzu3z8SWmX93NGVfMW5+owtff7Uv6Nrzi/Iy0h/gn7eCfP4mQz7TM/Mu6VjSPGdhsXjDmHnej/RPg7whwZhD07f6bAYuHCGPrcARGfIxv8mEr7/aF3Tt+UXYSPp3y3+V0X5znrUG+FTinKbp/vJ+9AryirIKeOsY+U4SpzPZWxKfRd5mZaj72yT6Up/VwMlj5HMied7kaX7jCV9/tS/o2vOb1NNIf+HdDuBBY+S2J3B24tymgcvo3neQy650ryxOPa+5cQ7dV/mTel3mvIe2v02qL/UZ5+Q1GyckzMv8JhO+/mpf0LXnN4lHA9uIn+P8WO4FMEu5F90JOnWOXyXP72h7A1/JMJ+5cTndrZ0RpsjfvAxlf4vQh/psDshrpdepmF+e/MLXX+0Luvb8xvUo8rzh71wmv9r+MeS5PfBtE+a5nIPo6pF6HnPjWuAhwfPYC/ivzPPo+/4Wpfb6rKP7PXrSvC4iTUNufpMJX3+1L+ja8xvHY8hz8r8F2BCU80sy5DtNdyV6CoeT/o1+8+Mm4ImJ5nMo3Ut9cs6nr/tbpNrrc0xgbkeZX3X5ha+/2hd07fmt1OPId+B+TXDuOS6a2078X8zPIt89/rNxK2m/poTuro6cc+rj/hat9vp8KDC3D5hfdfmFr7/aF3Tt+a3Ek0hzq9VC8QXir0ZdDXw2Q+4XEPf64JcDt2XIeW7sAJ4blP9y/jbTnPq4v6VQe33OD8xti/lVl1/4+qt9Qdee36ieA/x0ibwi4wrgnonmcSe699ennsOHJ8xziu6e+xz1nhu30T1NMZddgW8lmEff97dUaq9P5EXF28yvuvzC11/tC7r2/EbxYtLf5z8bO4DHJ57P/egubks9l/8xZn7r6L5+y1HvuZH75D/rUPJ9s9SH/S2l2usTeQK73vyqyy98/dW+oGvPbzmvJc+z9Wcj15P1nkH6r9a3AYetMK+9gS8nzmuhuInugU6lvGiRvErH0NRen/MCczvX/KrLL3z91b6ga89vMVNM9jCJceLELDP7ud8PzH2x+Bawy4j53Isyt8dtA54yYo4pvYf8c69lf8ul9vp8MDC395lfdfmFr7/aF3Tt+S1kDfCPCXJfKj5MnkdkzpfjpPOOEfI4mO7e25w1nwauonumQw12p77nAwxN7fU5OjC3FBeymt9kwtdf7Qu69vzm2w34RIK8l4r/oNyrdXehe4pfyvntpLuIcjEPprvwMWfNp4FLgQeutGCJPZzuOpDctSi1v+VWe33W0t1FM2leF5LmQTbmN5nw9Vf7gq49v7nuBvxngpyXivOBfRPPazn3IP3jgq8CDljgsx8FXJP4sxeK7y6STw1eT/56lNjfSuhDfY6YMKflGm7zK5df+PqrfUHXnt+sw4h5hORK4sfAIQnntBKPI/1fnl+hexbBrEeS526E+fFF4M6TFiyhNcCZ5K9Lzv2tlL7U58QJcnpzwrzMbzLh66/2BV17ftA92vfHCXJdKq4l7jG/UV5F+nm/YeazHg5cneHz5sdHKPdzy0qsJ99zJ3LvbyX1pT6r6N5Kt5JcdgJvIc+1ROY3nvD1V/uCrj2/55PnRTlz4xrgEQnmEuHDpJ37bcCxlPnL/410d3f0xXHkr1Hq/a20vtVnE6P9pn0+ZW5jNb+VCV9/tS/omvN7JfCzBDkuFddRz1XnC9mTPE8KzBm3Aa+ILFImq8j/6uOU+1sN+liftXQvpvkA3b3p22biHOD9dFerr82Uy0LMb3Th66/2BV1jfmuBdyfIbbm4HvjFoDmk9ABin6hVMrbTvUyorw4h/4uQUh4PSrM+Kil8/dW+oGvL707AvybIa7m4AXhsQP659OFNdcvFj+heI9x3Oa7NyHU8KM36qKTw9Vf7gq4pvwPpbv/KfRC9hu5Cw76p/U11S8V/AfeOL0kRayizblMcD0qzPiopfP3VvqBrye8hdA9+yX0AvRJ42AR5l7Qr8G3y12zS+CJwlwT1KOnx5H0nRarjQWnWRyWFr7/aF3QN+T2bMr+jXkz3prc+eyBwI/lrN268lzRP8KpBiTckDo31UUnh66/2BV06v98i36t858a5dD85DMFvkL9+48Tb6ddtfit1T7q7SHLWdGisj0oKX3+1L+hS+a2me6hDzoPlbJxN91jhISnx1+eosRM4Pt3Uq5L72QBDY31UUvj6q31Bl8hvD+CMBJ89SnyO7k6DobkT+R+VPErcQvcwp1asJe9zGobG+qik8PVX+4LOnd9+lHuO+t9T9oEXqT2KMj+nLBbbgaclnXGdnkq+Gg+N9VFJ4euv9gWdM7/1wA8SfOZysZPuDW4teAP567tQ3AA8Ie1Uq/Z58tR5aKyPSgpff7Uv6Fz5PZL8L/SZpvsK+kVj1qaP1gBfJ3+d58Z19PO5CpEeSZ7bAofG+qik8PVX+4LOkd+vUeZWtWuBJ09Qm746jHK3Bl5L3e9SyOmfSV/vobE+Kil8/dW+oFPn9xLK/C59Md0z81v1O+Sv+fXU9wrlkjaQvuZDY31UUvj6q31Bp8zvdyjzdLRvA/sH1KbPpoBPk6/mO2jzgr/lfIG0dR8a66OSwtdf7Qs6VX5/nGDsUeITdLcZCu4FXE36mu+kressVuLppK390FgflRS+/mpf0Cnye3OCcUeJU+geMKSfewnp6/66XJPpqe+RrvZDY31UUvj6q31BR+f39gRjLhc/A14dXZiBmKJ7+FGq2l/MsB/vG+GVpKv/0FgflRS+/mpf0ClPzDniZuB54VUZlnsD20i3DY7IN5Ve2he4iTS1Hxrro5LC11/tCzr1CTpl/AR4bHxJBun3SbcdttA9f0CL+whpaj801kclha+/2hd0jhN1ithKd7+7RrMK+CrptsfL8k2ll55PmroPjfVRSaHrb4r4RRj9e2sfd5KvA8+h+wZAo3swcBawLsHYPwYOofupQXd0Z7oaRdd+aNdf9PF4JC1oVekEBuijdE/38+S/ct8DTk409t2BVyUaewiuB/6zdBKS8rEBiHUS3QV/N5dOZJ51wHOB0+h+mriG7sE45wMfBo4CdimW3e29Cbg00djH0zUCWtg3SicgKa/af9NK+Tt9VNwGvCLB3CNsBH7I8nO4CDiyUI7zPY902+rEjPPom6Oo/3hQWuljjWFERvyAwUoXaLnYRvcyodrsAryLlc/nJMp/MzQFfIU02+sGYJ98U+mVB1P/8aC00scbw4iM+AGDlS7QUnEF8IgEc57UPZnslbvvpvzFWw+l+2YlxXZ7Q75p9Mo9qf94UFrpY45hREb8gMFKF2ix+D7dA2xqs57u6XeTzu/tuRNfwDtJs+2uBvbKOI++WEv9x4PSSh93DCMy4gcMVrpAC8XZwN0SzHVSj6a7+yBqnn+QN/072JvY+cyN12ScR5/UfjworfSxxzAiI37AYKULND/+je6e6do8l/jHue4EXphzEgv4PdJsxyuB3TLOoy9qPx6UVvr4YxiRET9gsNIFmhv/AuyeYI6TegXdC4dSzPkW4JfzTeUOdgF+QJq5+XTAO6r9eFBa6WOQYURG/IDBShdoNj5GmifUTeo4ur/UU879euAhuSa0gP+5SF6TxrdzTqInaj8elFb6OGQYkRE/YLDSBZoGPgCsTjC3Sf0J+WpwEd1b40pYQ/fQohTz8mVNt1f78aC00sciw4iM+AGDlS7Q6dT5JrnXk78WX6BcLV4wYo4rjffnnEQP1H48KK308cgwIiN+wGAli/N5YNcEc5rUqyhXk7dmmN9CVtF9ZR89n5vx8cBz1X48KK3k8cgwoiN+wGClCvPv1HnBX6qr4lcSpe4MOGIFOa4kjs85icrVfjworfS+ZxiRET9gsBJFOYs6b/V7Iekv+BslfgpsSDzXhUwBW8bId7k4N+ckKlf78aC00vueYYRF6We+1+hC4FfornyvyTOA91D+Eb3Q3T//cfI/DGmaNE8oXE/ZuxwkKTsbgNu7ge7teVeVTmSew+luQ1xbOpE5foHuArrca+i9dI/yjXZUgjElqVo2AD/3M2Az3TP+a3Jf4DPAnqUTWcAzyP/7+U+Bv08w7tEJxpSkqkX/rlB7fovFHyXIfVJ7Ad+lgt+KlohbyX8v/f7AjoDc58fDck6iUrUfD0orvb8ZRmTEDxgsRxE+Q33fhqwCPkn5BTJK/AC4S5IqLO60gLznxxuzzqBOtR8PSrM+Kil8/dW+oFOfvK4C7pEg70mdSPq5R8b70pRhUU8PzH02vpJ1BnWq/XhQmvVRSeHrr/YFnfrE9fwEOU/qhaSfd4p4bopiLGIN8N/B+V+bMf9a1X48KM36qKTw9Vf7gk55wvp0gnwn9UBgO2nnnSp+AuwXX5JFnRKc/20Zc69V7ceD0qyPSgpff7Uv6FQnq1vp7v+uyR50dyGkmnOO+FR4VRb3+ODcb8qYe61qPx6UZn1UUvj6q31BpzpRvTNBrpN6H+nmmzNyPSp4CrgkMG9fD1z/8aA066OSwtdf7Qs6xQnqVuA+CXKdxG+QZq7z40zgg4k/4yfAXWPLs6i3BOb915lyrlntx4PSrI9KCl9/tS/oFCeoUxPkOYn7ATeSZq5z47vAvnSP8k3xZr25kes1uwfTPcQpIudHZcq5ZrUfD0qzPiopfP3VvqBTnJyekiDPca0Gvkaaec6N87j97Y4H0131nvIznxFSoeVFfKPxpUy51q7240Fp1kclha+/2hd0dH5X0p10a/Fa4uc4Py4BDljgs59N2rcLXgTsOll5RrIvcPkEeW6je+Sy6j8elGZ9VFL4+qt9QUfnl+I58uN6EHAz8XOcG9fNfM5i3pr4818/Zm1W6kGM91yAm4BnZsqxD2o/HpRmfVRS+PqrfUFH5/eyBDmOYy1wNvHzmxs7gKcuk8cuwDcT5nAjcODKyzOW+wHfWEFul1PXz0E1qP14UJr1UUnh66/2BR2d3+EJchzHccTPbX68dMRc1pP24UOnraQwE1oD/C5wwRL5XAe8Ddg7Y159UfvxoDTro5JC198U8YtwKni86PwOoPvLr6T9gXPp3vaXypuAP17Bf/+bwLsS5QLwJPI+a38VsIHuTYX70Z3sfwj8F/AFum8mdEe1Hw9Ksz4qKbxprL2jjc5vtwQ5rtSHiJ/X3PgXxnu74ekJc/rWmDkpr9qPB6VZH5UUvv5qX9C157dSTyTtlfc/ZPyH8OwHXJMwtxpfvKTbG9r+Fs36qKTw9Vf7gq49v5VYQ/cwnlQn2B10X3lP4tcT5ncRsG7C/JTWkPa3FKyPSgpff7Uv6NrzW4lXEj+fufGKoDw/mzDHWu7C0MKGtL+lYH1UUvj6q31B157fqPYg/v31c+PDgbn+AnBDojwvp47rMLSwoexvqVgflRS+/mpf0LXnN6o/XCavSeJHdE/Di3RswnyPC85VcYayv6VifVRS+PqrfUHXnt8o7gxcvYIcVxpHJsh5NfCdRPleSZ5HBGvlhrC/pWR9VFL4+qt9Qdee3yj+bIU5riTemzDvx5PujoXfSpi3xjeE/S0l66OSwtdf7Qu69vyWc1fg+gnyXSouB/ZJgUKuZwAAEShJREFUnP9HEuV+IXW9lEmdvu9vqVkflRS+/mpf0LXnt5yUf/0/K0P+B9I9NS9F/kdnyF8r0/f9LTXro5LC11/tC7r2/JayK/DjwNznxqcyzuNPEs3hrIxz0Gj6vL/lYH1UUvj6q31B157fUl4anPts7AAOyziPPUnXyPxSxnloeX3e33KwPiopdP35bPa0jk007inAeYnGXsh24MREY3sxoCQVUntHW3t+i/nlBLlP091OmPrCv4XsClw2Rr7LxS3A3TLOQ0vr6/6Wi/VRSaHrz28A0nllonFfR/fCntxuJs23AOuAFycYV5K0jNo72trzW8iBwM8S5H4u3QuFStkVuHSBvCaNLfhe9Fr0cX/LyfqopND15zcAaTwPSFHb/wPclmDcUd0MvDnBuIcBT0owriRpCbV3tLXnt5BvJcj7Asr+9T9rd9I81vgfck5Ci+rj/paT9VFJoevPbwDirQcelmDc0n/9z/op8J4E426kux5AkpSBDUC8FyQY88fAaQnGHdcpdNc4RNqb7s4JSVIGNgDxjkkw5il0t8vV4hLgEwnGPSrBmJKkRdT+m1bt+c21IUG+NwN3T5z3OJ5M/FyvBtbmnITuoE/7WwnWRyWFrj+/AYi1McGYZ9D9BFCbLwPfCx5zH+CpwWNKkhZgAxDrVxKMmeKCuyj/mGDMZycYU5I0zxTxX0NFP9Cl9vxm3Q24ktim6nLg3sRfcBdlP7oHA60OHHMLcP/A8bQyfdnfSrE+Kil0/fkNQJynEl/PD1LvyR/gR8AXgsdcD+wfPKYkaR4bgDhPTDDmPyUYM9pHE4z55ARjSpLmsAGI84Tg8S4HzgweM4UziH9AkQ2AJCVmAxBjH+J/tz6dftwmdBXwteAxnxI8niRpHhuAGBuIr+XngsdL6VPB492H7uJHSVIiNgAxNgSP9zPg34LHTOmLCcZM8T4FSdIMG4AYDw8e70zguuAxU/o23U8BkR4SPJ4kaQ4bgBjRJ6s+/fUPsBP4SvCYDw4eT5I0hw3A5FYD9w0e86zg8XL4evB4fgMgSQnZAEzuPsS/x/6bwePl8I3g8Q4Bdg8eU5I0wwZgcocGj3cdcFHwmDmcRezzAFYDDwgcT5I0R4vvApCUz9CedV/78VLD5rsAJEnSZGwAJElqkA2AJEkNsgGQJKlBNgCSJDXIBkCSpAbZAEiS1CAbAEmSGmQDIElSg9aUTmAE24C9SichacW2lU5ghe5G92rvw4D1wP2AewB7AHvP/DOaTzpd2A7gRuDamX/eCPwIOB84D9gy87+vLpXgEPShAfgRNgBSH11ROoFl7AY8FXjKTDwYH81bi3Uzsfcy/90PgC8BX575Z+1rrip9eBfAqcDzg8eUlN4HgReWTmKeKeAJwIuBo4A7lU1Hwc4F/gl4P903BEMTer7uQwNwNPDh4DElpXcU8LHSSczYBXgJcDxwcNlUlMnX6RqB04BrCucSpbkGYB1wDu60Up9spXud862F89gNeDnwamD/wrmojJ8C7wJOBi4vnMukmmsAAI6k+1pHUj9sAs4onMOvAX8FHFQ4D9XhFuAfgBOBiwvnMq7wi0angyOVkxLkahhGfJxAWQcC/0z5Ohh1xg66JmBP+ie6FvEDJrKKbqOVXjyGYSweJ1D2+SIb6X7vLV0Ho/64FNhMv0TXIH7AxDYBFyTI2zCM8eMCupNvKeuAtwE7KV8Lo1/xWeAA+iF07n25BmC+tXSNwEZgA93G6+PXOVJfbQcuA84GTqf7vb/UBX97A58AHl/o89V/V9HdGvrZ0oksI/R83dcGYBLOdzLOty6tzXe+/egO2g8tnYh6b5ruotHjKH/3ymJsACbkfCfjfOvS2nznOgT4PHCfwnloWP4DOILuW4Ha2ABMyPlOxvnWpbX5zroX8FU8+SuNLcAzgB+WTmSe0P3dtwFK6ps7A5/Gk7/SWU/3JMFB/7RkAyCpT9YBnwIeVjoRDd5+dC8Y+sXSiaRiAyCpT07Eq/2Vzz7AvzLQbwK8BmByzrcuzncyNc/3WXS3+9Wco4bpCuBxdK8fLsmLACfkfCfjfOvSynwPBL7D8u+Hl1LZQvcq6ZJ3B3gRoKTmvANP/iprPfBxYE3pRKLYAEiq3a/QPflTKu0JwJ+VTiKKPwFMzvnWxflOprb57gZ8n7yv9N0JfIPuCvCzgfPofgPeTr1PiBuadcAedN/63B04bCY20F0Eunu51NhJ96rpfynw2dH7e/iLFWrnfJ2v8+3PfH+f+DkuFpcCfwDsn2VmGtc6ur/E/xL4b/Ktj7nxY8qsk/D9fegHkPmcr/N1vv2Y7y50LxyKnuP8uAp4Od2JRf2yFngO8O+kXyfz49MZ5jdf+P4+5APIQpyv83W+/Zjvy4if3/z4ELBvrgkpqV8CvkL6NTM3jsgys58L39+HfABZiPN1vs63/vlOAVuJn99s3Er3V7+GZQp4EXAl6dbO3LiE7lqFXML396EeQBbjfJ2v861/vk8kfm6z8VO6hwppuPamu2Uv1RqaG2/JNCcS5D7YA8hinK/zdb71z/fdxM9tmu4vf0/+bZgCjgVuIc1amo1bgHtnmlP4/j7UA8hinK/zdb51z3c34Hri5zaNX/u36GnANtKsp9l4Z6a5hO/vQzyALMX5Ol/nW/d8n038vKbpLvhTmx4J/IQ062oauInu7YGphebtkwAl1eYpCca8Bvi9BOOqH84Enkn3TUAKuwKvTjR2Mj4JUNJcNey/3wEeEjzmK4D/Gzym+ufpwCdJ88yHG+leWnVtgrFnhZ6//AZAUk3uBjw4eMzLgPcEj6l++hzwmkRj7wEck2jsJGwAJNXk4cR/C/FOYEfwmOqvdwCnJxr7xYnGTcIGQFJNDgse72fA+4PHVL9NAy+le55/tEcDhyYYNwkbAEk1iW4AzgQuDx5T/XctcHyCcaeAFyYYNwkbAEk1iW4AvhQ8nobj/XQvEYr23ARjJmEDIKkm9wwe76zg8TQc08D/TjDu/cnzTICJ2QBIqsmeweOdHzyehuXLwFeDx5wCnhw8ZhI2AJJqslfweD8KHk/Dc1KCMVM8zCqcDwKSNFfp/fcWYh/SsgveAqilraW7UPRugWNeDNw3cLxZPghoQttLJyBV6obSCUgF3AqcFjzmQcA+wWOGa7EBuKJ0AlKlavi6PPpZ7dHXFGiYPp5gzPslGDNUiw3A2aUTkCpVwxXz0Q1AL67GVnH/SfdGv0jRt7SGa7EBSPUISKnvatg3on+iq/4grCrcQvzdANWvvVYbgAtLJyFVZitwRukkgCuDxzs8eDwNV/Q3YDYAFdpBurdBSX11HN3FUKWdFzxeL27HUhWi1949gscL12IDAN0FHyeXTkKqxInU8dc/xB+EHwkcEDymhin6oVHRz7QI12oDAPBa0jwAQuqTE4E/LJ3EHNENwCrgRcFjapii74KpvgGA7sECkdE3m4ALiK+DYdQcFwAbqc9dgZ3EzvUyugcCSUu5K7Hr7icJcgw9DrT4JMCFrKVrBDYCG+i+MvT+YQ3JdroT4dl0F8KeQR2/+S/k28BDg8f8HeCvg8fUsOwC3Bw43i3AroHjQfz5OvwvCy3MOg+b2zfOXxBfz6uJfdSrhqn2/Tg0v5avAZBUpy8lGHMf4JQE40q9VnvHMxTWedjcvnF2A64jvqbTdD8FSIupfT/2GwBJg3YT8NFEY78dODLR2FKv2ABIqtH7Eo27GvgA8OxE40u9UvtXHkNhnYfN7RtrirS3594K/G622agvat+Pw/OrfcJDYZ2Hze0b77dI1wDMxkeBu+eakKpX+35sA9BT1nnY3L7xdgEuJX0TcA3dtwE+LEi178c2AD1lnYfN7ZvGK0nfAMzG5cAfAQdmmZlqVPt+HJqfTwLMxzoPm9s3jd2A7wEHZ/zMnXSvhv0S3ZMTz6NrDrbTvU1Uw1X7fhyanw1APtZ52Ny+6fwq8OnSSWhJN9I9avqbdI+aPp1+Nku178fh3yrU/pXHUFjnYXP7pvVx4mtspIut9PN5C7Xvx6H5+Q1APtZ52Ny+aR1I95KgfUonohU5me7V6ztLJzKi2vfj0Px8EJCkPrgUeDFp/qpSOscBby6dhBZmAyCpLz4NvK10Elqx19C9bl2V8SeAfKzzsLl981gLfAF4YulEtCJbgQdS/4WBte/H/gQgqVm3AhuB75ZORCtyCN12U0VsACT1zXXAM4GLSyeiFbEBqIwNgKQ+ugJ4OjYBfXJ46QR0ezYAkvpqK/BYutsDVb/9Syeg27MBkNRnVwJPBr5SOhEta8/SCej2bAAk9d11wFOBP6U/D5yRivM2wHys87C5fevwLOAfgX0L56GF1b6ua9+PvQ1QkhbxKeChwMdKJyLVzgZA0tBcDhwFPAU4t3AuUrVsACQN1ZeBhwO/R/cuAUlzeA1APtZ52Ny+dVtH9zKh1wCHFs6lZbWv69r349D8bADysc7D5vbtjw10zcALgLsWzqU1ta/r2vdjG4Cess7D5vbtn13prhP45Zl/PgR/Fk2t9nVd+35sA9BT1nnY3L79ty/dNQOHAeuB+wH3APYC7kL3IJt1xbIbhtrXde37sQ1AT1nnYXP7tqG17ex8J1N1A+DXXZIkNcgGQJKkBtkASJLUIBsASZIaZAMgSVKDbAAkSWqQDYAkSQ2yAZAkqUE2AJIkNcgGQJKkBtkASJLUIBsASZIaZAMgSVKDbAAkSWqQDYAkSQ2yAZAkqUE2AJIkNcgGQJKkBtkASJLUIBsASZIaZAMgSVKDbAAkSWqQDYAkSQ2yAZAkqUE2AJIkNcgGQJKkBtkASJLUIBsASZIaZAMgSVKDbAAkSWqQDYAkSQ2yAZAkqUE2AJIkNcgGQJKkBtkASJLUIBsASZIaZAMgSVKDbAAkSWqQDYAkSQ2yAeisA44BTgW2ANuB6eCIFp3f9pm5nwocTVeToXD7Dnv7ShpT7QfC1DYDFxJfh77HVuDICepaC7fvsLdvbtHboXbOt675hudX+4RTWQ2cTP4Db9/iJPr5TZHbd9jbt5To+tfO+dY13/D8ap9wKp4cRo8TxqxxSW7fYW/fUqJrXzvnW9d8w/OrfcIpbCb/QbbvsWmsSpfh9h329i0puu61c751zTc0v6kESU4FjxdtHXAOcHDpRHrmYmA9sKN0Istw+46nL9u3tNaOl853MtHzDc2vxd/+jsCTwzgOAjaWTmIEbt/x9GX7SgrSYgPgV53j68MJwu07vj5sX0lBWmwANpROoMcOL53ACNy+4+vD9pUUpMUGYL/SCfTY/qUTGIHbd3x92L6SgrR4EWAfrkStmdt32GrfvqV5vJyM852MFwFKkqTJ2ABIktQgGwBJkhpkAyBJUoNsACRJapANgCRJDbIBkCSpQTYAkiQ1yAZAkqQGrSmdwAC09mSr1rh9JQ2S3wBIktQgGwBJkhpkAyBJUoNsACRJapANgCRJDbIBkCSpQTYAkiQ1yAZAkqQG2QBIktQgGwBJkhpkAyBJUoNsACRJapANgCRJDbIBkCSpQTYAkiQ1yAZAkqQG2QBIktQgGwBJkhpkAyBJUoOmgOnSSUiSpLz8BkCSpAbZAEiS1CAbAEmSGmQDIElSg2wAJElqkA2AJEkNsgGQJKlBNgCSJDXIBkCSpAatAraXTkKSJGV1wyrgitJZSJKkrK5YBZxdOgtJkpTVWauA00tnIUmSsjpjClgLnAMcUjgZSZKU3kXA/VcBtwKvLZyMJEnK438BO1bP/J9zgT2Bx5bLR5IkJXYC8E6A1XP+5ReB3YHHlchIkiQldSLwR8A03L4BmAY+D3wHOBzYJ3tqkiQp2lbgpcApzJz8AaYW+Y/XApuAjcAG4AC6nwgkSVLdtgOX0d3mfzpwBt31frfz/wGwNTceKVYPDgAAAABJRU5ErkJggg==" vertex="1" parent="1">
          <mxGeometry x="-816" y="960" width="162" height="162" as="geometry" />
        </mxCell>
        <mxCell id="Qpk1EburZ4kJQWrD6RQ1-2334" value="" style="endArrow=classic;startArrow=classic;html=1;rounded=0;entryX=0.5;entryY=0.96;entryDx=0;entryDy=0;entryPerimeter=0;" edge="1" parent="1" source="Qpk1EburZ4kJQWrD6RQ1-2333" target="Qpk1EburZ4kJQWrD6RQ1-2271">
          <mxGeometry width="50" height="50" relative="1" as="geometry">
            <mxPoint x="-1100" y="726.5000000000002" as="sourcePoint" />
            <mxPoint x="-1100" y="666.9999999999998" as="targetPoint" />
          </mxGeometry>
        </mxCell>
        <mxCell id="Qpk1EburZ4kJQWrD6RQ1-2335" value="" style="endArrow=classic;startArrow=classic;html=1;rounded=0;exitX=0.5;exitY=0;exitDx=0;exitDy=0;entryX=0.5;entryY=0.96;entryDx=0;entryDy=0;entryPerimeter=0;" edge="1" parent="1" source="Qpk1EburZ4kJQWrD6RQ1-2331" target="Qpk1EburZ4kJQWrD6RQ1-2270">
          <mxGeometry width="50" height="50" relative="1" as="geometry">
            <mxPoint x="-1090" y="736.5000000000002" as="sourcePoint" />
            <mxPoint x="-1090" y="676.9999999999998" as="targetPoint" />
          </mxGeometry>
        </mxCell>
        <mxCell id="Qpk1EburZ4kJQWrD6RQ1-2336" value="" style="endArrow=classic;startArrow=classic;html=1;rounded=0;exitX=0.5;exitY=0;exitDx=0;exitDy=0;entryX=0.5;entryY=0.96;entryDx=0;entryDy=0;entryPerimeter=0;" edge="1" parent="1" source="Qpk1EburZ4kJQWrD6RQ1-2329" target="Qpk1EburZ4kJQWrD6RQ1-2269">
          <mxGeometry width="50" height="50" relative="1" as="geometry">
            <mxPoint x="-1080" y="746.5000000000002" as="sourcePoint" />
            <mxPoint x="-1080" y="686.9999999999998" as="targetPoint" />
          </mxGeometry>
        </mxCell>
        <mxCell id="Qpk1EburZ4kJQWrD6RQ1-2337" value="&lt;span style=&quot;font-size: 14px&quot;&gt;Conveyor lines&lt;/span&gt;" style="text;html=1;align=center;verticalAlign=middle;resizable=0;points=[];autosize=1;strokeColor=none;fillColor=none;" vertex="1" parent="1">
          <mxGeometry x="-1540" y="1154" width="110" height="20" as="geometry" />
        </mxCell>
        <mxCell id="Qpk1EburZ4kJQWrD6RQ1-2340" value="&lt;font style=&quot;font-size: 14px&quot;&gt;CNC&lt;/font&gt;" style="text;html=1;align=center;verticalAlign=middle;resizable=0;points=[];autosize=1;strokeColor=none;fillColor=none;" vertex="1" parent="1">
          <mxGeometry x="-1135" y="1149" width="50" height="20" as="geometry" />
        </mxCell>
        <mxCell id="Qpk1EburZ4kJQWrD6RQ1-2341" value="&lt;font style=&quot;font-size: 14px&quot;&gt;Furnace&lt;/font&gt;" style="text;html=1;align=center;verticalAlign=middle;resizable=0;points=[];autosize=1;strokeColor=none;fillColor=none;" vertex="1" parent="1">
          <mxGeometry x="-770" y="1149" width="70" height="20" as="geometry" />
        </mxCell>
      </root>
    </mxGraphModel>
  </diagram>
</mxfile>
